<?xml version="1.0" encoding="utf-8"?>
<!-- Generator: Adobe Illustrator 24.1.0, SVG Export Plug-In . SVG Version: 6.00 Build 0)  -->
<svg version="1.1" id="Layer_1" xmlns="http://www.w3.org/2000/svg" xmlns:xlink="http://www.w3.org/1999/xlink" x="0px" y="0px"
	 viewBox="0 0 394 400" style="enable-background:new 0 0 394 400;" xml:space="preserve">
<style type="text/css">
	.st0{fill:url(#SVGID_1_);}
	.st1{fill:#00CE89;}
	.st2{fill:#00B0FF;}
	.st3{fill:#00AE8D;}
	.st4{fill:#FFFFFF;}
	.st5{clip-path:url(#SVGID_3_);}
	.st6{clip-path:url(#SVGID_5_);}
	.st7{fill:#00CE8A;}
	.st8{fill:#00CD8B;}
	.st9{fill:#00CD8C;}
	.st10{fill:#00CD8D;}
	.st11{fill:#00CD8E;}
	.st12{fill:#00CC8F;}
	.st13{fill:#00CC90;}
	.st14{fill:#00CC91;}
	.st15{fill:#00CC92;}
	.st16{fill:#00CB93;}
	.st17{fill:#00CB94;}
	.st18{fill:#00CB95;}
	.st19{fill:#00CB96;}
	.st20{fill:#00CA97;}
	.st21{fill:#00CA98;}
	.st22{fill:#00CA99;}
	.st23{fill:#00CA9A;}
	.st24{fill:#00C99B;}
	.st25{fill:#00C99C;}
	.st26{fill:#00C99D;}
	.st27{fill:#00C99E;}
	.st28{fill:#00C89F;}
	.st29{fill:#00C8A0;}
	.st30{fill:#00C8A1;}
	.st31{fill:#00C8A2;}
	.st32{fill:#00C7A3;}
	.st33{fill:#00C7A4;}
	.st34{fill:#00C7A5;}
	.st35{fill:#00C7A6;}
	.st36{fill:#00C6A7;}
	.st37{fill:#00C6A8;}
	.st38{fill:#00C6A9;}
	.st39{fill:#00C6AA;}
	.st40{fill:#00C5AB;}
	.st41{fill:#00C5AC;}
	.st42{fill:#00C5AD;}
	.st43{fill:#00C5AE;}
	.st44{fill:#00C4AF;}
	.st45{fill:#00C4B0;}
	.st46{fill:#00C4B1;}
	.st47{fill:#00C3B2;}
	.st48{fill:#00C3B3;}
	.st49{fill:#00C3B4;}
	.st50{fill:#00C3B5;}
	.st51{fill:#00C2B6;}
	.st52{fill:#00C2B7;}
	.st53{fill:#00C2B8;}
	.st54{fill:#00C2B9;}
	.st55{fill:#00C1BA;}
	.st56{fill:#00C1BB;}
	.st57{fill:#00C1BC;}
	.st58{fill:#00C1BD;}
	.st59{fill:#00C0BE;}
	.st60{fill:#00C0BF;}
	.st61{fill:#00C0C0;}
	.st62{fill:#00C0C1;}
	.st63{fill:#00BFC2;}
	.st64{fill:#00BFC4;}
	.st65{fill:#00BFC5;}
	.st66{fill:#00BFC6;}
	.st67{fill:#00BEC7;}
	.st68{fill:#00BEC8;}
	.st69{fill:#00BEC9;}
	.st70{fill:#00BECA;}
	.st71{fill:#00BDCB;}
	.st72{fill:#00BDCC;}
	.st73{fill:#00BDCD;}
	.st74{fill:#00BDCE;}
	.st75{fill:#00BCCF;}
	.st76{fill:#00BCD0;}
	.st77{fill:#00BCD1;}
	.st78{fill:#00BCD2;}
	.st79{fill:#00BBD3;}
	.st80{fill:#00BBD4;}
	.st81{fill:#00BBD5;}
	.st82{fill:#00BBD6;}
	.st83{fill:#00BAD7;}
	.st84{fill:#00BAD8;}
	.st85{fill:#00BAD9;}
	.st86{fill:#00B9DA;}
	.st87{fill:#00B9DB;}
	.st88{fill:#00B9DC;}
	.st89{fill:#00B9DD;}
	.st90{fill:#00B8DE;}
	.st91{fill:#00B8DF;}
	.st92{fill:#00B8E0;}
	.st93{fill:#00B8E1;}
	.st94{fill:#00B7E2;}
	.st95{fill:#00B7E3;}
	.st96{fill:#00B7E4;}
	.st97{fill:#00B7E5;}
	.st98{fill:#00B6E6;}
	.st99{fill:#00B6E7;}
	.st100{fill:#00B6E8;}
	.st101{fill:#00B6E9;}
	.st102{fill:#00B5EA;}
	.st103{fill:#00B5EB;}
	.st104{fill:#00B5EC;}
	.st105{fill:#00B5ED;}
	.st106{fill:#00B4EE;}
	.st107{fill:#00B4EF;}
	.st108{fill:#00B4F0;}
	.st109{fill:#00B4F1;}
	.st110{fill:#00B3F2;}
	.st111{fill:#00B3F3;}
	.st112{fill:#00B3F4;}
	.st113{fill:#00B3F5;}
	.st114{fill:#00B2F6;}
	.st115{fill:#00B2F7;}
	.st116{fill:#00B2F8;}
	.st117{fill:#00B2F9;}
	.st118{fill:#00B1FA;}
	.st119{fill:#00B1FB;}
	.st120{fill:#00B1FC;}
	.st121{fill:#00B1FD;}
	.st122{fill:#00B0FE;}
</style>
<g>
	<linearGradient id="SVGID_1_" gradientUnits="userSpaceOnUse" x1="0.5554" y1="196.9109" x2="392" y2="196.9109">
		<stop  offset="0" style="stop-color:#00CE89"/>
		<stop  offset="1" style="stop-color:#00B0FF"/>
	</linearGradient>
	<path class="st0" d="M196.3,392.6c-26.4,0-52.1-5.2-76.2-15.4c-23.3-9.9-44.2-24-62.2-41.9c-18-18-32.1-38.9-41.9-62.2
		C5.7,249,0.6,223.3,0.6,196.9s5.2-52.1,15.4-76.2c9.9-23.3,24-44.2,41.9-62.2c18-18,38.9-32.1,62.2-41.9
		c24.1-10.2,49.8-15.4,76.2-15.4s52.1,5.2,76.2,15.4c23.3,9.9,44.2,24,62.2,41.9c18,18,32.1,38.9,41.9,62.2
		c10.2,24.1,15.4,49.8,15.4,76.2s-5.2,52.1-15.4,76.2c-9.9,23.3-24,44.2-41.9,62.2c-18,18-38.9,32.1-62.2,41.9
		C248.3,387.5,222.7,392.6,196.3,392.6z M196.3,1.6c-26.4,0-51.9,5.2-76,15.3C97,26.8,76.1,40.9,58.2,58.8
		c-17.9,17.9-32,38.8-41.9,62.1C6.1,145,1,170.5,1,196.9s5.2,51.9,15.3,76c9.8,23.3,23.9,44.1,41.9,62.1
		c17.9,17.9,38.8,32,62.1,41.9c24.1,10.2,49.7,15.3,76,15.3s51.9-5.2,76-15.3c23.3-9.8,44.1-23.9,62.1-41.9
		c17.9-17.9,32-38.8,41.9-62.1c10.2-24.1,15.3-49.7,15.3-76s-5.2-51.9-15.3-76c-9.8-23.3-23.9-44.1-41.9-62.1
		c-17.9-17.9-38.8-32-62.1-41.9C248.2,6.8,222.6,1.6,196.3,1.6z"/>
</g>
<g>
	<g>
		<g>
			<g>
				<path class="st1" d="M191.3,230.4c0,0,0-0.1,0-0.1L173,162.1l-45.9-12.3c-5.5-1.5-14,0.8-18,4.8l-56.6,56.6
					c-4,4-6.3,12.6-4.8,18l20.7,77.4c1.5,5.4,7.8,11.7,13.2,13.2l77.4,20.7c5.5,1.5,14-0.8,18-4.8l56.6-56.6c4-4,6.3-12.6,4.8-18
					l0-0.2l-2.4-9.1l-31.4-8.4C199.1,242,192.9,235.8,191.3,230.4"/>
			</g>
		</g>
		<g>
			<path class="st2" d="M361.4,184.7l-20.7-77.4c-1.5-5.5-7.8-11.7-13.2-13.2l-77.4-20.7c-5.5-1.5-14,0.8-18,4.8l-56.6,56.6
				c-4,4-6.3,12.6-4.8,18l0,0.2l2.4,9.1l31.4,8.4c5.4,1.4,11.6,7.7,13.2,13.1c0,0,0,0.1,0,0.1l18.2,68.1l45.9,12.3
				c5.5,1.5,14-0.8,18-4.8l56.6-56.6C360.5,198.7,362.9,190.1,361.4,184.7"/>
		</g>
		<g>
			<path class="st3" d="M217.7,183.6c-1.5-5.4-7.8-11.6-13.2-13.1l-31.4-8.4l18.2,68.1c0,0,0,0.1,0,0.1c1.5,5.4,7.8,11.6,13.2,13.1
				l31.4,8.4l-18.2-68.1C217.7,183.7,217.7,183.7,217.7,183.6"/>
		</g>
		<g>
			<path class="st4" d="M347.1,66.6c-3,11.2-14.5,17.8-25.6,14.8c-11.2-3-17.8-14.5-14.8-25.6c3-11.2,14.5-17.8,25.6-14.8
				C343.5,44,350.1,55.4,347.1,66.6"/>
		</g>
		<g>
			<path class="st2" d="M327,82.3c-1.8,0-3.7-0.2-5.5-0.7c-11.2-3-17.9-14.6-14.9-25.9c3-11.2,14.6-17.9,25.9-14.9
				c11.2,3,17.9,14.6,14.9,25.9l0,0c-1.5,5.4-5,10-9.8,12.8C334.2,81.3,330.6,82.3,327,82.3z M326.9,40.5c-9.1,0-17.5,6.1-20,15.4
				c-3,11,3.6,22.4,14.6,25.4c5.3,1.4,10.9,0.7,15.7-2.1c4.8-2.8,8.2-7.2,9.6-12.6c3-11-3.6-22.4-14.6-25.4
				C330.5,40.7,328.7,40.5,326.9,40.5z"/>
		</g>
		<g>
			<path class="st4" d="M390.6,78.2C387.6,89.4,376.1,96,365,93c-11.2-3-17.8-14.5-14.8-25.6c3-11.2,14.5-17.8,25.6-14.8
				C387,55.6,393.6,67.1,390.6,78.2"/>
		</g>
		<g>
			<path class="st2" d="M370.4,93.9c-1.8,0-3.6-0.2-5.5-0.7c-11.2-3-17.9-14.6-14.9-25.9c1.5-5.4,5-10,9.8-12.8
				c4.9-2.8,10.6-3.6,16-2.1c11.2,3,17.9,14.6,14.9,25.9l0,0C388.3,87.7,379.7,93.9,370.4,93.9z M370.4,52.1
				c-3.6,0-7.1,0.9-10.3,2.8c-4.8,2.8-8.2,7.2-9.6,12.6c-3,11,3.6,22.4,14.6,25.4c11,3,22.4-3.6,25.4-14.6l0.2,0.1l-0.2-0.1
				c3-11-3.6-22.4-14.6-25.4C374,52.4,372.2,52.1,370.4,52.1z"/>
		</g>
		<g>
			<path class="st4" d="M260.2,43.3c-3,11.2-14.5,17.8-25.6,14.8c-11.2-3-17.8-14.5-14.8-25.6c3-11.2,14.5-17.8,25.6-14.8
				C256.6,20.7,263.2,32.2,260.2,43.3"/>
		</g>
		<g>
			<path class="st2" d="M240,59c-1.8,0-3.6-0.2-5.5-0.7c-11.2-3-17.9-14.6-14.9-25.9c3-11.2,14.6-17.9,25.9-14.9
				c11.2,3,17.9,14.6,14.9,25.9C257.9,52.8,249.3,59,240,59z M240,17.2c-9.1,0-17.5,6.1-20,15.4c-3,11,3.6,22.4,14.6,25.4
				c11,3,22.4-3.6,25.4-14.6c3-11-3.6-22.4-14.6-25.4C243.6,17.4,241.8,17.2,240,17.2z"/>
		</g>
		<g>
			<path class="st4" d="M303.7,55c-3,11.2-14.5,17.8-25.6,14.8c-11.2-3-17.8-14.5-14.8-25.6c3-11.2,14.5-17.8,25.6-14.8
				C300,32.3,306.7,43.8,303.7,55"/>
		</g>
		<g>
			<path class="st2" d="M283.5,70.7c-1.8,0-3.6-0.2-5.5-0.7c-11.2-3-17.9-14.6-14.9-25.9c1.5-5.4,5-10,9.8-12.8
				c4.9-2.8,10.6-3.6,16-2.1c11.2,3,17.9,14.6,14.9,25.9C301.3,64.4,292.8,70.7,283.5,70.7z M283.4,28.8c-3.6,0-7.1,0.9-10.3,2.8
				c-4.8,2.8-8.2,7.2-9.6,12.6c-3,11,3.6,22.4,14.6,25.4c11,3,22.4-3.6,25.4-14.6c1.4-5.3,0.7-10.9-2.1-15.7
				c-2.8-4.8-7.2-8.2-12.6-9.6C287,29.1,285.2,28.8,283.4,28.8z"/>
		</g>
	</g>
	<g>
		<polygon class="st2" points="315.6,61.8 316.5,61.6 317,63.2 318.6,62.8 318.2,61.2 319.1,60.9 320.2,65 319.3,65.2 318.8,63.6 
			317.2,64 317.6,65.7 316.7,65.9 		"/>
	</g>
	<g>
		<g>
			<path class="st2" d="M320.9,63.6l-0.5-2l0.9-0.2l0.5,1.7c0.1,0.4,0.4,0.6,0.7,0.5c0.3-0.1,0.5-0.4,0.4-0.8l-0.5-1.7l0.9-0.2
				l0.8,3.1l-0.9,0.2l-0.1-0.4c-0.1,0.3-0.3,0.6-0.8,0.7C321.6,64.7,321.1,64.3,320.9,63.6"/>
		</g>
		<g>
			<path class="st2" d="M326.6,61.3c-0.2-0.4-0.5-0.6-0.8-0.5c-0.4,0.1-0.5,0.4-0.5,0.8L326.6,61.3z M324.4,62.2L324.4,62.2
				c-0.2-0.9,0.2-1.8,1.1-2.1c1-0.3,1.7,0.4,2,1.3c0,0.1,0,0.2,0.1,0.2l-2.2,0.6c0.2,0.4,0.5,0.5,0.9,0.4c0.3-0.1,0.5-0.2,0.7-0.5
				l0.6,0.3c-0.2,0.4-0.6,0.8-1.1,0.9C325.5,63.6,324.7,63.2,324.4,62.2"/>
		</g>
	</g>
	<g>
		
			<rect x="328.1" y="58.3" transform="matrix(0.9658 -0.2593 0.2593 0.9658 -4.4396 87.2578)" class="st2" width="0.9" height="4.4"/>
	</g>
	<g>
		<rect x="330" y="57.8" transform="matrix(0.9659 -0.259 0.259 0.9659 -4.2526 87.6466)" class="st2" width="0.9" height="4.4"/>
	</g>
	<g>
		<g>
			<path class="st2" d="M334,60.1l0-0.2c-0.2,0-0.4,0-0.6,0c-0.4,0.1-0.6,0.3-0.5,0.6l0,0c0.1,0.2,0.3,0.3,0.6,0.2
				C333.8,60.7,334.1,60.4,334,60.1 M332,60.9L332,60.9c-0.2-0.7,0.2-1.1,1-1.3c0.3-0.1,0.6-0.1,0.8-0.1l0-0.1
				c-0.1-0.4-0.4-0.5-0.8-0.4c-0.3,0.1-0.6,0.2-0.8,0.4l-0.4-0.6c0.3-0.2,0.6-0.4,1.1-0.6c0.5-0.1,0.9-0.1,1.1,0.1
				c0.3,0.2,0.5,0.5,0.6,0.9l0.5,1.8l-0.9,0.2l-0.1-0.3c-0.2,0.3-0.4,0.5-0.8,0.6C332.7,61.7,332.2,61.5,332,60.9"/>
		</g>
		<g>
			<path class="st2" d="M335.6,60.4l0.2-0.7c0.4,0.2,0.8,0.2,1.1,0.1c0.3-0.1,0.3-0.2,0.3-0.3l0,0c-0.1-0.2-0.4-0.2-0.7-0.2
				c-0.5,0-1-0.1-1.2-0.7l0,0c-0.2-0.6,0.2-1.1,0.9-1.3c0.4-0.1,0.9-0.1,1.3,0l-0.2,0.7c-0.4-0.1-0.7-0.1-0.9-0.1
				c-0.2,0.1-0.3,0.2-0.3,0.3l0,0c0,0.2,0.4,0.2,0.7,0.2c0.5,0,1,0.1,1.2,0.7l0,0c0.2,0.7-0.2,1.1-0.9,1.3
				C336.7,60.6,336.1,60.6,335.6,60.4"/>
		</g>
	</g>
	<g>
		<polygon class="st2" points="352.9,75.1 356,74.3 356.2,75.1 354,75.7 354.2,76.5 356.1,76 356.4,76.8 354.4,77.3 354.7,78.2 
			356.9,77.6 357.1,78.4 354,79.2 		"/>
	</g>
	<g>
		<g>
			<path class="st2" d="M357.1,75l0.9-0.2l0.1,0.4c0.1-0.3,0.3-0.6,0.8-0.7c0.4-0.1,0.8,0,1,0.3c0.2-0.4,0.5-0.7,0.9-0.8
				c0.7-0.2,1.2,0.1,1.4,0.9l0.5,2l-0.9,0.2l-0.5-1.7c-0.1-0.4-0.4-0.6-0.7-0.5c-0.3,0.1-0.5,0.4-0.4,0.8l0.5,1.7l-0.9,0.2l-0.5-1.7
				c-0.1-0.4-0.4-0.6-0.7-0.5c-0.3,0.1-0.5,0.4-0.4,0.8l0.5,1.7l-0.9,0.2L357.1,75z"/>
		</g>
		<g>
			<path class="st2" d="M363.3,75.5l-0.5-2l0.9-0.2l0.5,1.7c0.1,0.4,0.4,0.6,0.7,0.5c0.3-0.1,0.5-0.4,0.4-0.8l-0.5-1.7l0.9-0.2
				l0.8,3.1l-0.9,0.2l-0.1-0.4c-0.1,0.3-0.3,0.6-0.8,0.7C364,76.6,363.5,76.3,363.3,75.5"/>
		</g>
	</g>
	<g>
		<rect x="366.9" y="71.2" transform="matrix(0.9659 -0.259 0.259 0.9659 -6.4682 97.655)" class="st2" width="0.9" height="4.4"/>
	</g>
	<g>
		<g>
			<path class="st2" d="M368.9,74.8l0.2-0.7c0.4,0.2,0.8,0.2,1.1,0.1c0.3-0.1,0.3-0.2,0.3-0.3l0,0c-0.1-0.2-0.4-0.2-0.7-0.2
				c-0.5,0-1-0.1-1.2-0.7l0,0c-0.2-0.6,0.2-1.1,0.9-1.3c0.4-0.1,0.9-0.1,1.3,0l-0.2,0.7c-0.4-0.1-0.7-0.1-0.9-0.1
				c-0.2,0.1-0.3,0.2-0.3,0.3l0,0c0,0.2,0.4,0.2,0.7,0.2c0.5,0,1,0.1,1.2,0.7l0,0c0.2,0.7-0.2,1.1-0.9,1.3
				C370,75,369.4,75,368.9,74.8"/>
		</g>
	</g>
	<g>
		<path class="st2" d="M371.6,71.2l0.9-0.2l0.8,3.1l-0.9,0.2L371.6,71.2z M371.2,70l0.9-0.2l0.2,0.8l-0.9,0.2L371.2,70z"/>
	</g>
	<g>
		<g>
			<path class="st2" d="M376.2,71.6L376.2,71.6c-0.1-0.5-0.6-0.8-1.1-0.7c-0.5,0.1-0.7,0.6-0.6,1.1l0,0c0.1,0.5,0.6,0.8,1.1,0.6
				C376.1,72.6,376.3,72.1,376.2,71.6 M373.6,72.3L373.6,72.3c-0.2-0.9,0.3-1.8,1.3-2.1c1-0.3,1.9,0.3,2.1,1.2l0,0
				c0.2,0.9-0.3,1.8-1.3,2.1C374.8,73.7,373.9,73.2,373.6,72.3"/>
		</g>
		<g>
			<path class="st2" d="M377.4,69.6l0.9-0.2l0.1,0.4c0.1-0.3,0.3-0.6,0.8-0.7c0.7-0.2,1.2,0.2,1.4,0.9l0.5,2l-0.9,0.2l-0.5-1.7
				c-0.1-0.4-0.4-0.6-0.7-0.5c-0.3,0.1-0.5,0.4-0.4,0.8l0.5,1.7l-0.9,0.2L377.4,69.6z"/>
		</g>
		<g>
			<path class="st2" d="M383.6,69.4c-0.2-0.4-0.5-0.6-0.8-0.5c-0.4,0.1-0.5,0.4-0.5,0.8L383.6,69.4z M381.4,70.2L381.4,70.2
				c-0.2-0.9,0.2-1.8,1.1-2.1c1-0.3,1.7,0.4,2,1.3c0,0.1,0,0.2,0.1,0.2l-2.2,0.6c0.2,0.4,0.5,0.5,0.9,0.4c0.3-0.1,0.5-0.2,0.7-0.5
				l0.6,0.3c-0.2,0.4-0.6,0.8-1.1,0.9C382.5,71.6,381.7,71.2,381.4,70.2"/>
		</g>
		<g>
			<path class="st2" d="M385.3,70.4l0.2-0.7c0.4,0.2,0.8,0.2,1.1,0.1c0.3-0.1,0.3-0.2,0.3-0.3l0,0c-0.1-0.2-0.4-0.2-0.7-0.2
				c-0.5,0-1-0.1-1.2-0.7l0,0c-0.2-0.6,0.2-1.1,0.9-1.3c0.4-0.1,0.9-0.1,1.3,0L387,68c-0.4-0.1-0.7-0.1-0.9-0.1
				c-0.2,0.1-0.3,0.2-0.3,0.3l0,0c0,0.2,0.4,0.2,0.7,0.2c0.5,0,1,0.1,1.2,0.7l0,0c0.2,0.7-0.2,1.1-0.9,1.3
				C386.3,70.6,385.8,70.6,385.3,70.4"/>
		</g>
		<g>
			<path class="st2" d="M232.6,41.2l0.4-0.8c0.4,0.2,0.9,0.3,1.4,0.2c0.4-0.1,0.5-0.3,0.5-0.5l0,0c-0.1-0.2-0.2-0.3-1-0.3
				c-0.9,0-1.5-0.1-1.7-0.9l0,0c-0.2-0.7,0.3-1.4,1.1-1.6c0.6-0.2,1.2-0.1,1.7,0.1l-0.3,0.8c-0.4-0.2-0.8-0.2-1.2-0.1
				c-0.3,0.1-0.5,0.3-0.4,0.5l0,0c0.1,0.3,0.3,0.3,1,0.3c0.9,0,1.4,0.2,1.6,0.9l0,0c0.2,0.8-0.3,1.4-1.2,1.7
				C233.9,41.6,233.2,41.5,232.6,41.2"/>
		</g>
		<g>
			<path class="st2" d="M238.3,39.1l0-0.2c-0.2,0-0.4,0-0.6,0c-0.4,0.1-0.6,0.3-0.5,0.6l0,0c0.1,0.2,0.3,0.3,0.6,0.2
				C238.2,39.7,238.4,39.4,238.3,39.1 M236.3,39.9L236.3,39.9c-0.2-0.7,0.2-1.1,1-1.3c0.3-0.1,0.6-0.1,0.8-0.1l0-0.1
				c-0.1-0.4-0.4-0.5-0.8-0.4c-0.3,0.1-0.6,0.2-0.8,0.4l-0.4-0.6c0.3-0.2,0.6-0.4,1.1-0.6c0.5-0.1,0.9-0.1,1.1,0.1
				c0.3,0.2,0.5,0.5,0.6,0.9l0.5,1.8l-0.9,0.2l-0.1-0.3c-0.2,0.3-0.4,0.5-0.8,0.6C237.1,40.7,236.5,40.5,236.3,39.9"/>
		</g>
	</g>
	<g>
		
			<rect x="239.8" y="35.3" transform="matrix(0.9658 -0.2593 0.2593 0.9658 -1.5034 63.5756)" class="st2" width="0.9" height="4.4"/>
	</g>
	<g>
		<g>
			<path class="st2" d="M243.8,36.9c-0.2-0.4-0.5-0.6-0.8-0.5c-0.4,0.1-0.5,0.4-0.5,0.8L243.8,36.9z M241.7,37.7L241.7,37.7
				c-0.2-0.9,0.2-1.8,1.1-2.1c1-0.3,1.7,0.4,2,1.3c0,0.1,0,0.2,0.1,0.2l-2.2,0.6c0.2,0.4,0.5,0.5,0.9,0.4c0.3-0.1,0.5-0.2,0.7-0.5
				l0.6,0.3c-0.2,0.4-0.6,0.8-1.1,0.9C242.8,39.2,241.9,38.7,241.7,37.7"/>
		</g>
		<g>
			<path class="st2" d="M245.6,37.9l0.2-0.7c0.4,0.2,0.8,0.2,1.1,0.1c0.3-0.1,0.3-0.2,0.3-0.3l0,0c-0.1-0.2-0.4-0.2-0.7-0.2
				c-0.5,0-1-0.1-1.2-0.7l0,0c-0.2-0.6,0.2-1.1,0.9-1.3c0.4-0.1,0.9-0.1,1.3,0l-0.2,0.7c-0.4-0.1-0.7-0.1-0.9-0.1
				c-0.2,0.1-0.3,0.2-0.3,0.3l0,0c0,0.2,0.4,0.2,0.7,0.2c0.5,0,1,0.1,1.2,0.7l0,0c0.2,0.7-0.2,1.1-0.9,1.3
				C246.6,38.1,246.1,38.1,245.6,37.9"/>
		</g>
	</g>
	<g>
		<polygon class="st2" points="269.1,51.3 267.8,51.6 267.6,50.8 271,49.9 271.2,50.7 270,51 270.8,54.3 269.9,54.5 		"/>
	</g>
	<g>
		<g>
			<path class="st2" d="M273.9,52.3l0-0.2c-0.2,0-0.4,0-0.6,0c-0.4,0.1-0.6,0.3-0.5,0.6l0,0c0.1,0.2,0.3,0.3,0.6,0.2
				C273.8,52.9,274,52.6,273.9,52.3 M271.9,53L271.9,53c-0.2-0.7,0.2-1.1,1-1.3c0.3-0.1,0.6-0.1,0.8-0.1l0-0.1
				c-0.1-0.4-0.4-0.5-0.8-0.4c-0.3,0.1-0.6,0.2-0.8,0.4l-0.4-0.6c0.3-0.2,0.6-0.4,1.1-0.6c0.5-0.1,0.9-0.1,1.1,0.1
				c0.3,0.2,0.5,0.5,0.6,0.9l0.5,1.8l-0.9,0.2l-0.1-0.3c-0.2,0.3-0.4,0.5-0.8,0.6C272.7,53.8,272.1,53.6,271.9,53"/>
		</g>
	</g>
	<g>
		<rect x="275.4" y="48.4" transform="matrix(0.9659 -0.259 0.259 0.9659 -3.7022 73.1819)" class="st2" width="0.9" height="4.4"/>
	</g>
	<g>
		<g>
			<path class="st2" d="M279.4,50.8l0-0.2c-0.2,0-0.4,0-0.6,0c-0.4,0.1-0.6,0.3-0.5,0.6l0,0c0.1,0.2,0.3,0.3,0.6,0.2
				C279.2,51.4,279.4,51.1,279.4,50.8 M277.4,51.5L277.4,51.5c-0.2-0.7,0.2-1.1,1-1.3c0.3-0.1,0.6-0.1,0.8-0.1l0-0.1
				c-0.1-0.4-0.4-0.5-0.8-0.4c-0.3,0.1-0.6,0.2-0.8,0.4l-0.4-0.6c0.3-0.2,0.6-0.4,1.1-0.6c0.5-0.1,0.9-0.1,1.1,0.1
				c0.3,0.2,0.5,0.5,0.6,0.9l0.5,1.8l-0.9,0.2l-0.1-0.3c-0.2,0.3-0.4,0.5-0.8,0.6C278.1,52.4,277.5,52.2,277.4,51.5"/>
		</g>
		<g>
			<path class="st2" d="M283.2,49.3L283.2,49.3c-0.1-0.5-0.6-0.8-1-0.7c-0.4,0.1-0.7,0.5-0.5,1.1l0,0c0.1,0.5,0.6,0.8,1,0.7
				C283.1,50.2,283.4,49.8,283.2,49.3 M280.8,49.9L280.8,49.9c-0.3-1.1,0.2-1.8,1-2c0.5-0.1,0.8,0,1.1,0.2l-0.4-1.5l0.9-0.2l1.1,4.3
				l-0.9,0.2l-0.1-0.4c-0.1,0.4-0.4,0.6-0.8,0.8C282,51.3,281.1,51,280.8,49.9"/>
		</g>
		<g>
			<path class="st2" d="M284.6,47.2l0.9-0.2l0.2,0.6c0.1-0.5,0.3-0.8,0.8-1l0.2,0.9l0,0c-0.6,0.2-0.9,0.6-0.7,1.4l0.3,1.2l-0.9,0.2
				L284.6,47.2z"/>
		</g>
	</g>
	<g>
		<path class="st2" d="M287.2,46.5l0.9-0.2l0.8,3.1l-0.9,0.2L287.2,46.5z M286.9,45.4l0.9-0.2l0.2,0.8l-0.9,0.2L286.9,45.4z"/>
	</g>
	<g>
		<g>
			<path class="st2" d="M289,46l0.9-0.2l0.1,0.4c0.1-0.3,0.3-0.6,0.8-0.7c0.7-0.2,1.2,0.2,1.4,0.9l0.5,2l-0.9,0.2l-0.5-1.7
				c-0.1-0.4-0.4-0.6-0.7-0.5c-0.3,0.1-0.5,0.4-0.4,0.8l0.5,1.7l-0.9,0.2L289,46z"/>
		</g>
		<g>
			<path class="st2" d="M295.2,46.6l0-0.2c-0.2,0-0.4,0-0.6,0c-0.4,0.1-0.6,0.3-0.5,0.6l0,0c0.1,0.2,0.3,0.3,0.6,0.2
				C295,47.2,295.3,46.9,295.2,46.6 M293.2,47.3L293.2,47.3c-0.2-0.7,0.2-1.1,1-1.3c0.3-0.1,0.6-0.1,0.8-0.1l0-0.1
				c-0.1-0.4-0.4-0.5-0.8-0.4c-0.3,0.1-0.6,0.2-0.8,0.4l-0.4-0.6c0.3-0.2,0.6-0.4,1.1-0.6c0.5-0.1,0.9-0.1,1.1,0.1
				c0.3,0.2,0.5,0.5,0.6,0.9l0.5,1.8l-0.9,0.2l-0.1-0.3c-0.2,0.3-0.4,0.5-0.8,0.6C293.9,48.1,293.4,47.9,293.2,47.3"/>
		</g>
		<g>
			<path class="st2" d="M296.9,46.8l0.2-0.7c0.4,0.2,0.8,0.2,1.1,0.1c0.3-0.1,0.3-0.2,0.3-0.3l0,0c-0.1-0.2-0.4-0.2-0.7-0.2
				c-0.5,0-1-0.1-1.2-0.7l0,0c-0.2-0.6,0.2-1.1,0.9-1.3c0.4-0.1,0.9-0.1,1.3,0l-0.2,0.7c-0.4-0.1-0.7-0.1-0.9-0.1
				c-0.2,0.1-0.3,0.2-0.3,0.3l0,0c0,0.2,0.4,0.2,0.7,0.2c0.5,0,1,0.1,1.2,0.7l0,0c0.2,0.7-0.2,1.1-0.9,1.3
				C297.9,47.1,297.4,47.1,296.9,46.8"/>
		</g>
		<g>
			<path class="st4" d="M63.8,348.4c-3,11.2-14.5,17.8-25.6,14.8c-11.2-3-17.8-14.5-14.8-25.6c3-11.2,14.5-17.8,25.6-14.8
				C60.1,325.8,66.8,337.3,63.8,348.4"/>
		</g>
		<g>
			<path class="st1" d="M43.6,364.1c-1.8,0-3.6-0.2-5.5-0.7c-11.2-3-17.9-14.6-14.9-25.9c1.5-5.4,5-10,9.8-12.8
				c4.9-2.8,10.6-3.6,16-2.1c5.4,1.5,10,5,12.8,9.8c2.8,4.9,3.6,10.6,2.1,16C61.4,357.9,52.9,364.1,43.6,364.1z M43.5,322.3
				c-3.6,0-7.1,0.9-10.3,2.8c-4.8,2.8-8.2,7.2-9.6,12.6c-3,11,3.6,22.4,14.6,25.4c11,3,22.4-3.6,25.4-14.6
				c1.4-5.3,0.7-10.9-2.1-15.7c-2.8-4.8-7.2-8.2-12.6-9.6C47.1,322.5,45.3,322.3,43.5,322.3z"/>
		</g>
		<g>
			<path class="st4" d="M107.2,360.1c-3,11.2-14.5,17.8-25.6,14.8c-11.2-3-17.8-14.5-14.8-25.6c3-11.2,14.5-17.8,25.6-14.8
				C103.6,337.5,110.2,348.9,107.2,360.1"/>
		</g>
		<g>
			<path class="st1" d="M87,375.8c-1.8,0-3.6-0.2-5.5-0.7c-11.2-3-17.9-14.6-14.9-25.9c3-11.2,14.6-17.9,25.9-14.9
				c11.2,3,17.9,14.6,14.9,25.9l0,0C104.9,369.5,96.3,375.8,87,375.8z M87,334c-9.1,0-17.5,6.1-20,15.4c-3,11,3.6,22.4,14.6,25.4
				c11,3,22.4-3.6,25.4-14.6l0.2,0.1L107,360c3-11-3.6-22.4-14.6-25.4C90.6,334.2,88.8,334,87,334z"/>
		</g>
		<g>
			<path class="st4" d="M150.7,371.7c-3,11.2-14.5,17.8-25.6,14.8c-11.2-3-17.8-14.5-14.8-25.6c3-11.2,14.5-17.8,25.6-14.8
				C147.1,349,153.7,360.5,150.7,371.7"/>
		</g>
		<g>
			<path class="st1" d="M130.5,387.4c-1.8,0-3.6-0.2-5.5-0.7c-5.4-1.5-10-5-12.8-9.8c-2.8-4.9-3.6-10.6-2.1-16
				c1.5-5.4,5-10,9.8-12.8c4.9-2.8,10.6-3.6,16-2.1c11.2,3,17.9,14.6,14.9,25.9l0,0C148.4,381.1,139.8,387.4,130.5,387.4z
				 M130.5,345.5c-3.6,0-7.1,0.9-10.3,2.8c-4.8,2.8-8.2,7.2-9.6,12.6c-3,11,3.6,22.4,14.6,25.4c11,3,22.4-3.6,25.4-14.6
				c3-11-3.6-22.4-14.6-25.4C134.1,345.8,132.3,345.5,130.5,345.5z"/>
		</g>
		<g>
			<path class="st4" d="M194.2,383.3c-3,11.2-14.5,17.8-25.6,14.8c-11.2-3-17.8-14.5-14.8-25.6c3-11.2,14.5-17.8,25.6-14.8
				C190.5,360.7,197.2,372.1,194.2,383.3"/>
		</g>
		<g>
			<path class="st1" d="M174,399c-1.8,0-3.6-0.2-5.5-0.7c-5.4-1.5-10-5-12.8-9.8c-2.8-4.9-3.6-10.6-2.1-16c1.5-5.4,5-10,9.8-12.8
				c4.9-2.8,10.6-3.6,16-2.1c5.4,1.5,10,5,12.8,9.8c2.8,4.9,3.6,10.6,2.1,16C191.8,392.8,183.3,399,174,399z M173.9,357.2
				c-3.6,0-7.1,0.9-10.3,2.8c-4.8,2.8-8.2,7.2-9.6,12.6c-3,11,3.6,22.4,14.6,25.4c5.3,1.4,10.9,0.7,15.7-2.1
				c4.8-2.8,8.2-7.2,9.6-12.6c1.4-5.3,0.7-10.9-2.1-15.7c-2.8-4.8-7.2-8.2-12.6-9.6C177.5,357.4,175.7,357.2,173.9,357.2z"/>
		</g>
	</g>
	<g>
		<path class="st1" d="M35.1,345.3l-0.9-1.2l-0.2,1.5L35.1,345.3z M33.5,343.2l0.8-0.2l2.8,3.6l-0.9,0.3l-0.6-0.8l-1.7,0.5l-0.1,1
			l-0.9,0.2L33.5,343.2z"/>
	</g>
	<g>
		<g>
			<path class="st1" d="M37.2,345L37.2,345c-0.2-0.9,0.2-1.8,1.2-2.1c0.6-0.2,1-0.1,1.4,0.2l-0.4,0.7c-0.3-0.2-0.5-0.2-0.8-0.2
				c-0.4,0.1-0.7,0.6-0.5,1.1l0,0c0.1,0.5,0.5,0.8,1,0.7c0.3-0.1,0.5-0.3,0.6-0.5l0.7,0.4c-0.2,0.4-0.5,0.7-1.1,0.9
				C38.3,346.4,37.4,345.8,37.2,345"/>
		</g>
		<g>
			<path class="st1" d="M42.7,343.2c-0.2-0.4-0.5-0.6-0.8-0.5c-0.4,0.1-0.5,0.4-0.5,0.8L42.7,343.2z M40.5,344.1L40.5,344.1
				c-0.2-0.9,0.2-1.8,1.1-2.1c1-0.3,1.7,0.4,2,1.3c0,0.1,0,0.2,0.1,0.2l-2.2,0.6c0.2,0.4,0.5,0.5,0.9,0.4c0.3-0.1,0.5-0.2,0.7-0.5
				l0.6,0.3c-0.2,0.4-0.6,0.8-1.1,0.9C41.7,345.5,40.8,345,40.5,344.1"/>
		</g>
	</g>
	<g>
		<path class="st1" d="M44,341.4l0.9-0.2l0.8,3.1l-0.9,0.2L44,341.4z M43.7,340.3l0.9-0.2l0.2,0.8l-0.9,0.2L43.7,340.3z"/>
	</g>
	<g>
		<g>
			<path class="st1" d="M46.6,343.1l-0.4-1.5l-0.4,0.1l-0.2-0.8l0.4-0.1l-0.2-0.8l0.9-0.2l0.2,0.8l0.7-0.2l0.2,0.8l-0.7,0.2l0.4,1.3
				c0.1,0.2,0.2,0.3,0.4,0.2c0.2,0,0.3-0.1,0.4-0.2l0.2,0.7c-0.2,0.2-0.4,0.3-0.7,0.4C47.2,344,46.8,343.9,46.6,343.1"/>
		</g>
		<g>
			<path class="st1" d="M77.1,357L77.1,357c-0.3-1.2,0.3-2.4,1.6-2.7c0.7-0.2,1.2-0.1,1.8,0.1l-0.4,0.8c-0.4-0.2-0.7-0.3-1.2-0.1
				c-0.7,0.2-1,0.9-0.8,1.6l0,0c0.2,0.7,0.9,1.2,1.6,1c0.3-0.1,0.6-0.2,0.8-0.5l-0.2-0.6l-0.9,0.2l-0.2-0.8l1.8-0.5l0.5,1.8
				c-0.3,0.5-0.8,0.9-1.6,1.1C78.5,358.9,77.4,358.2,77.1,357"/>
		</g>
		<g>
			<path class="st1" d="M81.6,354.6l0.9-0.2l0.2,0.6c0.1-0.5,0.3-0.8,0.8-1l0.2,0.9l0,0c-0.6,0.2-0.9,0.6-0.7,1.4l0.3,1.2l-0.9,0.2
				L81.6,354.6z"/>
		</g>
		<g>
			<path class="st1" d="M86.5,355.5l0-0.2c-0.2,0-0.4,0-0.6,0c-0.4,0.1-0.6,0.3-0.5,0.6l0,0c0.1,0.2,0.3,0.3,0.6,0.2
				C86.4,356.1,86.6,355.8,86.5,355.5 M84.5,356.2L84.5,356.2c-0.2-0.7,0.2-1.1,1-1.3c0.3-0.1,0.6-0.1,0.8-0.1l0-0.1
				c-0.1-0.4-0.4-0.5-0.8-0.4c-0.3,0.1-0.6,0.2-0.8,0.4l-0.4-0.6c0.3-0.2,0.6-0.4,1.1-0.6c0.5-0.1,0.9-0.1,1.1,0.1
				c0.3,0.2,0.5,0.5,0.6,0.9l0.5,1.8l-0.9,0.2l-0.1-0.3c-0.2,0.3-0.4,0.5-0.8,0.6C85.3,357.1,84.7,356.9,84.5,356.2"/>
		</g>
		<g>
			<path class="st1" d="M88.2,355.8l0.2-0.7c0.4,0.2,0.8,0.2,1.1,0.1c0.3-0.1,0.3-0.2,0.3-0.3l0,0c-0.1-0.2-0.4-0.2-0.7-0.2
				c-0.5,0-1-0.1-1.2-0.7l0,0c-0.2-0.6,0.2-1.1,0.9-1.3c0.4-0.1,0.9-0.1,1.3,0l-0.2,0.7c-0.4-0.1-0.7-0.1-0.9-0.1
				c-0.2,0.1-0.3,0.2-0.3,0.3l0,0c0,0.2,0.4,0.2,0.7,0.2c0.5,0,1,0.1,1.2,0.7l0,0c0.2,0.7-0.2,1.1-0.9,1.3
				C89.2,356,88.7,356,88.2,355.8"/>
		</g>
		<g>
			<path class="st1" d="M93.2,353.7l0-0.2c-0.2,0-0.4,0-0.6,0c-0.4,0.1-0.6,0.3-0.5,0.6l0,0c0.1,0.2,0.3,0.3,0.6,0.2
				C93,354.3,93.2,354,93.2,353.7 M91.2,354.5L91.2,354.5c-0.2-0.7,0.2-1.1,1-1.3c0.3-0.1,0.6-0.1,0.8-0.1l0-0.1
				c-0.1-0.4-0.4-0.5-0.8-0.4c-0.3,0.1-0.6,0.2-0.8,0.4l-0.4-0.6c0.3-0.2,0.6-0.4,1.1-0.6c0.5-0.1,0.9-0.1,1.1,0.1
				c0.3,0.2,0.5,0.5,0.6,0.9l0.5,1.8l-0.9,0.2l-0.1-0.3c-0.2,0.3-0.4,0.5-0.8,0.6C91.9,355.3,91.3,355.1,91.2,354.5"/>
		</g>
		<g>
			<path class="st1" d="M94.8,354l0.2-0.7c0.4,0.2,0.8,0.2,1.1,0.1c0.3-0.1,0.3-0.2,0.3-0.3l0,0c-0.1-0.2-0.4-0.2-0.7-0.2
				c-0.5,0-1-0.1-1.2-0.7l0,0c-0.2-0.6,0.2-1.1,0.9-1.3c0.4-0.1,0.9-0.1,1.3,0l-0.2,0.7c-0.4-0.1-0.7-0.1-0.9-0.1
				c-0.2,0.1-0.3,0.2-0.3,0.3l0,0c0,0.2,0.4,0.2,0.7,0.2c0.5,0,1,0.1,1.2,0.7l0,0c0.2,0.7-0.2,1.1-0.9,1.3
				C95.9,354.2,95.3,354.2,94.8,354"/>
		</g>
		<g>
			<path class="st1" d="M161.6,380.3c0.4-0.1,0.6-0.5,0.5-0.8l0,0c-0.1-0.4-0.4-0.5-0.9-0.4l-0.7,0.2l0.3,1.2L161.6,380.3z
				 M159.4,378.6l1.7-0.4c1-0.3,1.7,0.2,1.9,1l0,0c0.3,0.9-0.4,1.6-1.3,1.9l-0.7,0.2l0.3,1.2l-0.9,0.2L159.4,378.6z"/>
		</g>
		<g>
			<path class="st1" d="M166,379.3c-0.2-0.4-0.5-0.6-0.8-0.5c-0.4,0.1-0.5,0.4-0.5,0.8L166,379.3z M163.9,380.2L163.9,380.2
				c-0.2-0.9,0.2-1.8,1.1-2.1c1-0.3,1.7,0.4,2,1.3c0,0.1,0,0.2,0.1,0.2l-2.2,0.6c0.2,0.4,0.5,0.5,0.9,0.4c0.3-0.1,0.5-0.2,0.7-0.5
				l0.6,0.3c-0.2,0.4-0.6,0.8-1.1,0.9C165,381.6,164.1,381.1,163.9,380.2"/>
		</g>
		<g>
			<path class="st1" d="M168,379.8l-0.4-1.5l-0.4,0.1l-0.2-0.8l0.4-0.1l-0.2-0.8l0.9-0.2l0.2,0.8l0.7-0.2l0.2,0.8l-0.7,0.2l0.4,1.3
				c0.1,0.2,0.2,0.3,0.4,0.2c0.2,0,0.3-0.1,0.4-0.2l0.2,0.7c-0.2,0.2-0.4,0.3-0.7,0.4C168.6,380.6,168.2,380.5,168,379.8"/>
		</g>
		<g>
			<path class="st1" d="M169.9,376.9l0.9-0.2l0.2,0.6c0.1-0.5,0.3-0.8,0.8-1l0.2,0.9l0,0c-0.6,0.2-0.9,0.6-0.7,1.4l0.3,1.2l-0.9,0.2
				L169.9,376.9z"/>
		</g>
		<g>
			<path class="st1" d="M173.9,374.3l0.9,0.1l-0.6,0.9l-0.7,0.2L173.9,374.3z M175.2,377.1L175.2,377.1c-0.1-0.5-0.6-0.8-1.1-0.7
				c-0.5,0.1-0.7,0.6-0.6,1.1l0,0c0.1,0.5,0.6,0.8,1.1,0.6C175.1,378.1,175.3,377.6,175.2,377.1 M172.7,377.8L172.7,377.8
				c-0.2-0.9,0.3-1.8,1.3-2.1c1-0.3,1.9,0.3,2.1,1.2l0,0c0.2,0.9-0.3,1.8-1.3,2.1C173.8,379.2,172.9,378.7,172.7,377.8"/>
		</g>
	</g>
	<g>
		
			<rect x="176.7" y="373.8" transform="matrix(0.9659 -0.259 0.259 0.9659 -91.3501 58.7175)" class="st1" width="0.9" height="4.4"/>
	</g>
	<g>
		<g>
			<path class="st1" d="M180.7,375.4c-0.2-0.4-0.5-0.6-0.8-0.5c-0.4,0.1-0.5,0.4-0.5,0.8L180.7,375.4z M178.5,376.2L178.5,376.2
				c-0.2-0.9,0.2-1.8,1.1-2.1c1-0.3,1.7,0.4,2,1.3c0,0.1,0,0.2,0.1,0.2l-2.2,0.6c0.2,0.4,0.5,0.5,0.9,0.4c0.3-0.1,0.5-0.2,0.7-0.5
				l0.6,0.3c-0.2,0.4-0.6,0.8-1.1,0.9C179.7,377.7,178.8,377.2,178.5,376.2"/>
		</g>
		<g>
			<path class="st1" d="M184.7,374.6L184.7,374.6c-0.1-0.5-0.6-0.8-1.1-0.7c-0.5,0.1-0.7,0.6-0.6,1.1l0,0c0.1,0.5,0.6,0.8,1.1,0.6
				C184.6,375.5,184.8,375,184.7,374.6 M182.2,375.2L182.2,375.2c-0.2-0.9,0.3-1.8,1.3-2.1c1-0.3,1.9,0.3,2.1,1.2l0,0
				c0.2,0.9-0.3,1.8-1.3,2.1C183.3,376.7,182.4,376.1,182.2,375.2"/>
		</g>
		<g>
			<path class="st1" d="M186.4,375.3l0.2-0.7c0.4,0.2,0.8,0.2,1.1,0.1c0.3-0.1,0.3-0.2,0.3-0.3l0,0c-0.1-0.2-0.4-0.2-0.7-0.2
				c-0.5,0-1-0.1-1.2-0.7l0,0c-0.2-0.6,0.2-1.1,0.9-1.3c0.4-0.1,0.9-0.1,1.3,0L188,373c-0.4-0.1-0.7-0.1-0.9-0.1
				c-0.2,0.1-0.3,0.2-0.3,0.3l0,0c0,0.2,0.4,0.2,0.7,0.2c0.5,0,1,0.1,1.2,0.7l0,0c0.2,0.7-0.2,1.1-0.9,1.3
				C187.4,375.6,186.9,375.6,186.4,375.3"/>
		</g>
		<g>
			<path class="st1" d="M122.3,368.1L122.3,368.1c-0.3-1.2,0.3-2.4,1.6-2.7c0.8-0.2,1.3-0.1,1.8,0.2l-0.4,0.8
				c-0.4-0.2-0.8-0.3-1.2-0.2c-0.7,0.2-1,0.9-0.8,1.6l0,0c0.2,0.7,0.8,1.2,1.5,1c0.5-0.1,0.7-0.4,0.9-0.8l0.7,0.4
				c-0.3,0.6-0.7,1-1.5,1.2C123.7,370,122.6,369.3,122.3,368.1"/>
		</g>
		<g>
			<path class="st1" d="M128.8,366.6c-0.2-0.4-0.5-0.6-0.8-0.5c-0.4,0.1-0.5,0.4-0.5,0.8L128.8,366.6z M126.7,367.4L126.7,367.4
				c-0.2-0.9,0.2-1.8,1.1-2.1c1-0.3,1.7,0.4,2,1.3c0,0.1,0,0.2,0.1,0.2l-2.2,0.6c0.2,0.4,0.5,0.5,0.9,0.4c0.3-0.1,0.5-0.2,0.7-0.5
				l0.6,0.3c-0.2,0.4-0.6,0.8-1.1,0.9C127.8,368.9,126.9,368.4,126.7,367.4"/>
		</g>
		<g>
			<path class="st1" d="M130.1,364.8l0.9-0.2l0.2,0.6c0.1-0.5,0.3-0.8,0.8-1l0.2,0.9l0,0c-0.6,0.2-0.9,0.6-0.7,1.4l0.3,1.2l-0.9,0.2
				L130.1,364.8z"/>
		</g>
		<g>
			<path class="st1" d="M135,365.7l0-0.2c-0.2,0-0.4,0-0.6,0c-0.4,0.1-0.6,0.3-0.5,0.6l0,0c0.1,0.2,0.3,0.3,0.6,0.2
				C134.8,366.3,135.1,366,135,365.7 M133,366.4L133,366.4c-0.2-0.7,0.2-1.1,1-1.3c0.3-0.1,0.6-0.1,0.8-0.1l0-0.1
				c-0.1-0.4-0.4-0.5-0.8-0.4c-0.3,0.1-0.6,0.2-0.8,0.4l-0.4-0.6c0.3-0.2,0.6-0.4,1.1-0.6c0.5-0.1,0.9-0.1,1.1,0.1
				c0.3,0.2,0.5,0.5,0.6,0.9l0.5,1.8l-0.9,0.2l-0.1-0.3c-0.2,0.3-0.4,0.5-0.8,0.6C133.7,367.3,133.2,367.1,133,366.4"/>
		</g>
		<g>
			<path class="st1" d="M136.6,366l0.2-0.7c0.4,0.2,0.8,0.2,1.1,0.1c0.3-0.1,0.3-0.2,0.3-0.3l0,0c-0.1-0.2-0.4-0.2-0.7-0.2
				c-0.5,0-1-0.1-1.2-0.7l0,0c-0.2-0.6,0.2-1.1,0.9-1.3c0.4-0.1,0.9-0.1,1.3,0l-0.2,0.7c-0.4-0.1-0.7-0.1-0.9-0.1
				c-0.2,0.1-0.3,0.2-0.3,0.3l0,0c0,0.2,0.4,0.2,0.7,0.2c0.5,0,1,0.1,1.2,0.7l0,0c0.2,0.7-0.2,1.1-0.9,1.3
				C137.7,366.2,137.1,366.2,136.6,366"/>
		</g>
		<g>
			<path class="st1" d="M50.8,341c-0.2-0.4-0.5-0.6-0.8-0.5c-0.4,0.1-0.5,0.4-0.5,0.8L50.8,341z M48.6,341.9L48.6,341.9
				c-0.2-0.9,0.2-1.8,1.1-2.1c1-0.3,1.7,0.4,2,1.3c0,0.1,0,0.2,0.1,0.2l-2.2,0.6c0.2,0.4,0.5,0.5,0.9,0.4c0.3-0.1,0.5-0.2,0.7-0.5
				l0.6,0.3c-0.2,0.4-0.6,0.8-1.1,0.9C49.7,343.3,48.9,342.8,48.6,341.9"/>
		</g>
		<g>
			<path class="st1" d="M52.5,342.1l0.2-0.7c0.4,0.2,0.8,0.2,1.1,0.1c0.3-0.1,0.3-0.2,0.3-0.3l0,0c-0.1-0.2-0.4-0.2-0.7-0.2
				c-0.5,0-1-0.1-1.2-0.7l0,0c-0.2-0.6,0.2-1.1,0.9-1.3c0.4-0.1,0.9-0.1,1.3,0l-0.2,0.7c-0.4-0.1-0.7-0.1-0.9-0.1
				c-0.2,0.1-0.3,0.2-0.3,0.3l0,0c0,0.2,0.4,0.2,0.7,0.2c0.5,0,1,0.1,1.2,0.7l0,0c0.2,0.7-0.2,1.1-0.9,1.3
				C53.5,342.3,53,342.3,52.5,342.1"/>
		</g>
		<g>
			<path class="st2" d="M199,37.1c0.3-0.1,0.5-0.3,0.7-0.5c0.1-0.1,0.2-0.3,0.3-0.4c0.1-0.1,0.1-0.3,0.1-0.4c0-0.2,0-0.3,0-0.4
				c0-0.1-0.1-0.3-0.3-0.4l0,0c-0.1-0.1-0.2-0.2-0.4-0.2c-0.1,0-0.3,0-0.4,0c-0.1,0-0.3,0.1-0.4,0.1c-0.1,0.1-0.3,0.1-0.4,0.2
				c-0.1,0.1-0.2,0.1-0.4,0.2c-0.1,0.1-0.2,0.1-0.3,0.1c-0.1,0-0.2,0-0.3,0c-0.1,0-0.2-0.1-0.3-0.1l0,0c-0.1-0.1-0.2-0.3-0.2-0.5
				c0-0.2,0.1-0.4,0.3-0.6c0.1-0.1,0.3-0.3,0.5-0.3c0.2-0.1,0.4-0.2,0.6-0.2l-0.1-0.3c-0.2,0-0.4,0.1-0.7,0.2
				c-0.2,0.1-0.4,0.3-0.6,0.4c-0.1,0.1-0.2,0.3-0.3,0.4c-0.1,0.1-0.1,0.3-0.1,0.4c0,0.1,0,0.3,0.1,0.4c0,0.1,0.1,0.3,0.2,0.4l0,0
				c0.1,0.1,0.2,0.2,0.4,0.2c0.1,0,0.3,0,0.4,0c0.1,0,0.3-0.1,0.4-0.2c0.1-0.1,0.3-0.2,0.4-0.2c0.1-0.1,0.2-0.1,0.3-0.2
				c0.1-0.1,0.2-0.1,0.3-0.1c0.1,0,0.2,0,0.3,0c0.1,0,0.2,0.1,0.3,0.1l0,0c0.2,0.2,0.2,0.3,0.2,0.6c0,0.2-0.1,0.4-0.3,0.6
				c-0.2,0.2-0.4,0.3-0.6,0.4c-0.2,0.1-0.5,0.2-0.7,0.2l0.1,0.4C198.5,37.3,198.8,37.2,199,37.1 M194.2,39.4
				c-0.2-0.2-0.3-0.3-0.4-0.5c-0.1-0.2-0.1-0.4-0.1-0.6s0-0.4,0.1-0.6c0.1-0.2,0.2-0.4,0.3-0.5c0.2-0.2,0.3-0.3,0.5-0.3
				c0.2-0.1,0.4-0.1,0.6-0.1c0.2,0,0.4,0.1,0.6,0.1c0.2,0.1,0.4,0.2,0.5,0.4l0,0c0.2,0.2,0.3,0.3,0.4,0.5c0.1,0.2,0.1,0.4,0.1,0.6
				c0,0.2,0,0.4-0.1,0.6c-0.1,0.2-0.2,0.4-0.3,0.5c-0.2,0.2-0.3,0.3-0.5,0.3c-0.2,0.1-0.4,0.1-0.6,0.1c-0.2,0-0.4,0-0.6-0.1
				C194.5,39.7,194.3,39.6,194.2,39.4L194.2,39.4z M194.6,40.1c0.2,0.1,0.5,0.2,0.7,0.2c0.2,0,0.5,0,0.7-0.1
				c0.2-0.1,0.5-0.2,0.7-0.4c0.2-0.2,0.3-0.4,0.4-0.7c0.1-0.2,0.1-0.5,0.1-0.7c0-0.3-0.1-0.5-0.2-0.7c-0.1-0.2-0.2-0.4-0.4-0.6l0,0
				c-0.2-0.2-0.4-0.3-0.6-0.4s-0.5-0.2-0.7-0.2c-0.2,0-0.5,0-0.7,0.1c-0.2,0.1-0.5,0.2-0.7,0.4c-0.2,0.2-0.3,0.4-0.4,0.7
				c-0.1,0.2-0.1,0.5-0.1,0.7c0,0.3,0.1,0.5,0.2,0.7c0.1,0.2,0.2,0.4,0.4,0.6l0,0C194.1,39.9,194.3,40,194.6,40.1 M191.5,43.1
				c0.2,0.1,0.5,0.1,0.7,0.2c0.2,0,0.5,0,0.7-0.1c0.2-0.1,0.5-0.2,0.6-0.4c0.2-0.2,0.4-0.5,0.5-0.8c0.1-0.3,0.1-0.6,0.1-0.8l-0.3,0
				c0,0.2,0,0.5-0.1,0.7c-0.1,0.2-0.2,0.4-0.4,0.6c-0.2,0.2-0.3,0.3-0.5,0.3c-0.2,0.1-0.4,0.1-0.6,0.1c-0.2,0-0.4,0-0.6-0.1
				c-0.2-0.1-0.4-0.2-0.5-0.4l0,0c-0.2-0.2-0.3-0.3-0.4-0.5c-0.1-0.2-0.1-0.4-0.1-0.6c0-0.2,0-0.4,0.1-0.6c0.1-0.2,0.2-0.4,0.3-0.5
				c0.2-0.2,0.4-0.3,0.6-0.4c0.2-0.1,0.5-0.1,0.7-0.1l0-0.4c-0.1,0-0.3,0-0.4,0c-0.1,0-0.3,0-0.4,0.1c-0.1,0-0.3,0.1-0.4,0.2
				c-0.1,0.1-0.3,0.2-0.4,0.3c-0.2,0.2-0.3,0.4-0.4,0.6c-0.1,0.2-0.1,0.5-0.1,0.7c0,0.2,0.1,0.5,0.2,0.7c0.1,0.2,0.2,0.4,0.4,0.6
				l0,0C191.1,42.9,191.3,43,191.5,43.1 M191.3,44.9l-2.6-2.6l-0.3,0.3l2.6,2.6L191.3,44.9z M188,41.6l-0.3-0.3l-0.3,0.3l0.3,0.3
				L188,41.6z M188,48.3l-1.5-1.5c-0.1-0.1-0.2-0.3-0.3-0.5c-0.1-0.2-0.1-0.3-0.1-0.5c0-0.2,0-0.3,0.1-0.5c0.1-0.2,0.2-0.3,0.3-0.4
				c0.3-0.3,0.6-0.4,0.9-0.4c0.3,0,0.6,0.2,0.9,0.4l1.6,1.6l0.3-0.3l-1.6-1.6c-0.2-0.2-0.3-0.3-0.5-0.4c-0.2-0.1-0.4-0.1-0.6-0.1
				c-0.2,0-0.4,0-0.6,0.1c-0.2,0.1-0.4,0.2-0.5,0.4c-0.2,0.2-0.4,0.5-0.4,0.8c0,0.3,0,0.5,0,0.8l-0.5-0.5l-0.3,0.3l2.6,2.6L188,48.3
				z M182.6,47.5l0-1.1l-0.5,0.2l0.2,1.1L182.6,47.5z M183.9,50.8c-0.2-0.2-0.3-0.4-0.2-0.7c0-0.3,0.2-0.5,0.5-0.8
				c0.2-0.2,0.4-0.3,0.5-0.5c0.2-0.1,0.3-0.2,0.5-0.3l0.3,0.3c0.1,0.1,0.2,0.3,0.3,0.4c0,0.2,0.1,0.3,0,0.5c0,0.2-0.1,0.3-0.2,0.5
				c-0.1,0.2-0.2,0.3-0.3,0.4c-0.1,0.1-0.2,0.2-0.3,0.2c-0.1,0.1-0.2,0.1-0.4,0.1c-0.1,0-0.2,0-0.4,0
				C184.1,50.9,184,50.9,183.9,50.8L183.9,50.8z M184.1,51.3c0.2,0,0.3,0.1,0.5,0c0.2,0,0.3-0.1,0.5-0.2c0.2-0.1,0.3-0.2,0.4-0.3
				c0.1-0.1,0.2-0.3,0.3-0.4c0.1-0.1,0.1-0.3,0.2-0.4c0-0.1,0.1-0.3,0.1-0.4c0-0.1,0-0.2,0-0.3l0.4,0.4l0.3-0.3l-1.7-1.7
				c-0.3-0.3-0.7-0.5-1-0.5c-0.4,0-0.8,0.2-1.1,0.5c-0.2,0.2-0.3,0.4-0.4,0.6c-0.1,0.2-0.2,0.4-0.3,0.6l0.3,0.1
				c0.1-0.2,0.1-0.4,0.2-0.5c0.1-0.2,0.2-0.3,0.4-0.5c0.3-0.3,0.6-0.4,0.8-0.4c0.3,0,0.6,0.1,0.8,0.4l0.1,0.1
				c-0.2,0.1-0.3,0.2-0.5,0.3c-0.2,0.1-0.3,0.3-0.5,0.5c-0.2,0.2-0.3,0.3-0.4,0.5c-0.1,0.2-0.2,0.4-0.2,0.5c0,0.2,0,0.3,0,0.5
				c0.1,0.2,0.1,0.3,0.3,0.5l0,0C183.8,51.2,183.9,51.3,184.1,51.3 M179.7,53.6c-0.2-0.2-0.3-0.3-0.3-0.5c-0.1-0.2-0.1-0.4-0.1-0.5
				c0-0.2,0-0.4,0.1-0.5c0.1-0.2,0.2-0.3,0.3-0.5c0.1-0.1,0.3-0.2,0.5-0.3c0.2-0.1,0.4-0.1,0.6-0.1s0.4,0,0.6,0.1
				c0.2,0.1,0.4,0.2,0.5,0.3l0,0c0.2,0.2,0.3,0.3,0.3,0.5c0.1,0.2,0.1,0.4,0.1,0.6c0,0.2-0.1,0.4-0.1,0.6c-0.1,0.2-0.2,0.3-0.3,0.5
				c-0.1,0.1-0.3,0.2-0.5,0.3c-0.2,0.1-0.4,0.1-0.5,0.1c-0.2,0-0.4,0-0.5-0.1C180,53.9,179.9,53.7,179.7,53.6L179.7,53.6z
				 M180.1,54.3c0.2,0.1,0.5,0.1,0.7,0.1c0.2,0,0.4-0.1,0.7-0.2c0.2-0.1,0.4-0.2,0.6-0.4c0.1-0.1,0.2-0.3,0.3-0.4
				c0.1-0.1,0.1-0.3,0.2-0.4c0-0.1,0-0.3,0-0.4c0-0.1,0-0.3,0-0.4l0.4,0.4c0.2,0.2,0.3,0.3,0.4,0.5c0.1,0.2,0.1,0.4,0.1,0.5
				c0,0.2,0,0.4-0.1,0.5c-0.1,0.2-0.2,0.3-0.4,0.5c-0.4,0.4-0.9,0.6-1.4,0.7l0.1,0.4c0.6-0.1,1.2-0.4,1.6-0.8
				c0.2-0.2,0.3-0.4,0.5-0.6c0.1-0.2,0.2-0.5,0.2-0.7c0-0.2,0-0.4-0.1-0.6c-0.1-0.2-0.2-0.4-0.4-0.6l-2.2-2.2l-0.3,0.3l0.5,0.5
				c-0.1,0-0.3,0-0.4,0c-0.1,0-0.3,0-0.4,0.1c-0.1,0-0.3,0.1-0.4,0.2c-0.1,0.1-0.3,0.2-0.4,0.3c-0.2,0.2-0.3,0.3-0.4,0.6
				c-0.1,0.2-0.1,0.4-0.2,0.7c0,0.2,0,0.5,0.1,0.7c0.1,0.2,0.2,0.4,0.4,0.6l0,0C179.7,54.1,179.9,54.2,180.1,54.3 M179.2,57
				l-1.1-1.1c-0.2-0.2-0.4-0.4-0.5-0.7c-0.1-0.2-0.2-0.4-0.2-0.7c0-0.2,0-0.4,0.1-0.6c0.1-0.2,0.2-0.4,0.4-0.5l0,0l-0.3-0.3
				c0,0,0,0,0,0c-0.1,0.1-0.2,0.2-0.3,0.4c-0.1,0.2-0.1,0.3-0.2,0.5c0,0.2,0,0.3,0,0.5c0,0.2,0.1,0.4,0.1,0.5l-0.8-0.8l-0.3,0.3
				l2.6,2.6L179.2,57z M174.3,59.3c-0.2-0.2-0.3-0.3-0.4-0.5c-0.1-0.2-0.1-0.4-0.1-0.6c0-0.2,0-0.4,0.1-0.6c0.1-0.2,0.2-0.4,0.3-0.5
				c0.2-0.2,0.3-0.3,0.5-0.3c0.2-0.1,0.4-0.1,0.6-0.1c0.2,0,0.4,0.1,0.6,0.1c0.2,0.1,0.4,0.2,0.5,0.4l0,0c0.2,0.2,0.3,0.3,0.4,0.5
				c0.1,0.2,0.1,0.4,0.1,0.6c0,0.2,0,0.4-0.1,0.6c-0.1,0.2-0.2,0.4-0.3,0.5c-0.2,0.2-0.3,0.3-0.5,0.3c-0.2,0.1-0.4,0.1-0.6,0.1
				c-0.2,0-0.4,0-0.6-0.1C174.7,59.6,174.5,59.4,174.3,59.3L174.3,59.3z M174.7,60c0.2,0.1,0.5,0.2,0.7,0.2c0.2,0,0.5,0,0.7-0.1
				c0.2-0.1,0.5-0.2,0.7-0.4c0.2-0.2,0.3-0.4,0.4-0.7c0.1-0.2,0.1-0.5,0.1-0.7c0-0.3-0.1-0.5-0.2-0.7c-0.1-0.2-0.2-0.4-0.4-0.6l0,0
				c-0.2-0.2-0.4-0.3-0.6-0.4c-0.2-0.1-0.5-0.2-0.7-0.2c-0.2,0-0.5,0-0.7,0.1c-0.2,0.1-0.5,0.2-0.7,0.4c-0.2,0.2-0.3,0.4-0.4,0.7
				c-0.1,0.2-0.1,0.5-0.1,0.7c0,0.3,0.1,0.5,0.2,0.7c0.1,0.2,0.2,0.4,0.4,0.6l0,0C174.2,59.7,174.4,59.9,174.7,60 M172.5,63.7
				l-1.5-1.5c-0.1-0.1-0.2-0.3-0.3-0.5c-0.1-0.2-0.1-0.3-0.1-0.5c0-0.2,0-0.3,0.1-0.5c0.1-0.2,0.2-0.3,0.3-0.4
				c0.3-0.3,0.6-0.4,0.9-0.4c0.3,0,0.6,0.2,0.9,0.4l1.6,1.6l0.3-0.3l-1.6-1.6c-0.2-0.2-0.3-0.3-0.5-0.4c-0.2-0.1-0.4-0.1-0.6-0.1
				c-0.2,0-0.4,0-0.6,0.1c-0.2,0.1-0.4,0.2-0.5,0.4c-0.2,0.2-0.4,0.5-0.4,0.8c0,0.3,0,0.5,0,0.8l-0.5-0.5l-0.3,0.3l2.6,2.6
				L172.5,63.7z M171.1,65.1l-2.6-2.6l-0.3,0.3l2.6,2.6L171.1,65.1z M167.8,61.7l-0.3-0.3l-0.3,0.3l0.3,0.3L167.8,61.7z M166.8,69.3
				c0.3-0.1,0.5-0.3,0.7-0.5c0.1-0.1,0.2-0.3,0.3-0.4c0.1-0.1,0.1-0.3,0.1-0.4c0-0.2,0-0.3,0-0.4c0-0.1-0.1-0.3-0.3-0.4l0,0
				c-0.1-0.1-0.2-0.2-0.4-0.2c-0.1,0-0.3,0-0.4,0c-0.1,0-0.3,0.1-0.4,0.1c-0.1,0.1-0.3,0.1-0.4,0.2c-0.1,0.1-0.2,0.1-0.4,0.2
				c-0.1,0.1-0.2,0.1-0.3,0.1c-0.1,0-0.2,0-0.3,0c-0.1,0-0.2-0.1-0.3-0.1l0,0c-0.1-0.1-0.2-0.3-0.2-0.5c0-0.2,0.1-0.4,0.3-0.6
				c0.1-0.1,0.3-0.3,0.5-0.3c0.2-0.1,0.4-0.2,0.6-0.2l-0.1-0.3c-0.2,0-0.4,0.1-0.7,0.2c-0.2,0.1-0.4,0.3-0.6,0.4
				c-0.1,0.1-0.2,0.3-0.3,0.4c-0.1,0.1-0.1,0.3-0.1,0.4c0,0.1,0,0.3,0.1,0.4c0,0.1,0.1,0.3,0.2,0.4l0,0c0.1,0.1,0.2,0.2,0.4,0.2
				c0.1,0,0.3,0,0.4,0c0.1,0,0.3-0.1,0.4-0.2c0.1-0.1,0.3-0.2,0.4-0.2c0.1-0.1,0.2-0.1,0.3-0.2c0.1-0.1,0.2-0.1,0.3-0.1
				c0.1,0,0.2,0,0.3,0c0.1,0,0.2,0.1,0.3,0.1l0,0c0.2,0.2,0.2,0.3,0.2,0.6c0,0.2-0.1,0.4-0.3,0.6c-0.2,0.2-0.4,0.3-0.6,0.4
				c-0.2,0.1-0.5,0.2-0.7,0.2l0.1,0.4C166.3,69.5,166.6,69.4,166.8,69.3 M162,71.6c-0.2-0.2-0.3-0.3-0.4-0.5
				c-0.1-0.2-0.1-0.4-0.1-0.6c0-0.2,0-0.4,0.1-0.6c0.1-0.2,0.2-0.4,0.3-0.5c0.2-0.2,0.3-0.3,0.5-0.3c0.2-0.1,0.4-0.1,0.6-0.1
				c0.2,0,0.4,0,0.6,0.1c0.2,0.1,0.4,0.2,0.5,0.4l0,0c0.2,0.2,0.3,0.3,0.4,0.5c0.1,0.2,0.1,0.4,0.1,0.6c0,0.2,0,0.4-0.1,0.6
				c-0.1,0.2-0.2,0.4-0.3,0.5c-0.2,0.2-0.3,0.3-0.5,0.3c-0.2,0.1-0.4,0.1-0.6,0.1c-0.2,0-0.4,0-0.6-0.1
				C162.3,71.9,162.1,71.8,162,71.6L162,71.6z M162.4,72.3c0.2,0.1,0.5,0.2,0.7,0.2c0.2,0,0.5,0,0.7-0.1c0.2-0.1,0.5-0.2,0.7-0.4
				c0.2-0.2,0.3-0.4,0.4-0.7c0.1-0.2,0.1-0.5,0.1-0.7c0-0.3-0.1-0.5-0.2-0.7c-0.1-0.2-0.2-0.4-0.4-0.6l0,0c-0.2-0.2-0.4-0.3-0.6-0.4
				c-0.2-0.1-0.5-0.2-0.7-0.2c-0.2,0-0.5,0-0.7,0.1c-0.2,0.1-0.5,0.2-0.7,0.4c-0.2,0.2-0.3,0.4-0.4,0.7c-0.1,0.2-0.1,0.5-0.1,0.7
				c0,0.3,0.1,0.5,0.2,0.7c0.1,0.2,0.2,0.4,0.4,0.6l0,0C161.9,72.1,162.1,72.2,162.4,72.3 M159.3,75.7c0.2,0.1,0.4,0.1,0.6,0.1
				c0.2,0,0.4,0,0.6-0.1c0.2-0.1,0.4-0.2,0.5-0.4c0.2-0.2,0.4-0.5,0.4-0.8c0-0.3,0-0.5,0-0.8l0.5,0.5l0.3-0.3l-2.6-2.6l-0.3,0.3
				l1.5,1.5c0.1,0.1,0.2,0.3,0.3,0.5c0.1,0.2,0.1,0.3,0.1,0.5c0,0.2,0,0.3-0.1,0.5c-0.1,0.2-0.2,0.3-0.3,0.4
				c-0.3,0.3-0.6,0.4-0.9,0.4c-0.3,0-0.6-0.2-0.9-0.4l-1.6-1.6l-0.3,0.3l1.6,1.6C159,75.5,159.2,75.6,159.3,75.7 M155.1,78.4
				c-0.2-0.2-0.3-0.4-0.4-0.6c-0.1-0.2-0.1-0.4-0.1-0.6c0-0.2,0-0.4,0.1-0.6c0.1-0.2,0.2-0.3,0.3-0.5c0.1-0.1,0.3-0.2,0.5-0.3
				c0.2-0.1,0.4-0.1,0.6-0.1c0.2,0,0.4,0,0.6,0.1c0.2,0.1,0.4,0.2,0.6,0.4l0,0c0.2,0.2,0.3,0.4,0.4,0.6c0.1,0.2,0.1,0.4,0.1,0.6
				c0,0.2,0,0.4-0.1,0.6c-0.1,0.2-0.2,0.3-0.3,0.5c-0.1,0.1-0.3,0.2-0.5,0.3c-0.2,0.1-0.4,0.1-0.6,0.1c-0.2,0-0.4,0-0.6-0.1
				C155.5,78.8,155.3,78.6,155.1,78.4L155.1,78.4z M155.6,79.2c0.2,0.1,0.5,0.1,0.7,0.1c0.2,0,0.5-0.1,0.7-0.1
				c0.2-0.1,0.4-0.2,0.6-0.4c0.1-0.1,0.2-0.3,0.3-0.4c0.1-0.1,0.1-0.3,0.2-0.4c0-0.1,0-0.3,0-0.4c0-0.2,0-0.3-0.1-0.4l0.6,0.6
				l0.3-0.3l-3.8-3.8l-0.3,0.3l1.7,1.7c-0.1,0-0.3,0-0.4,0c-0.1,0-0.3,0-0.4,0c-0.1,0-0.3,0.1-0.4,0.2c-0.1,0.1-0.3,0.2-0.4,0.3
				c-0.2,0.2-0.3,0.3-0.4,0.6c-0.1,0.2-0.1,0.4-0.1,0.7s0,0.5,0.1,0.7c0.1,0.2,0.3,0.5,0.5,0.7l0,0C155.1,79,155.3,79.1,155.6,79.2
				 M155.3,81l-2.6-2.6l-0.3,0.3l2.6,2.6L155.3,81z M152,77.6l-0.3-0.3l-0.3,0.3l0.3,0.3L152,77.6z M152.5,83.6
				c0.3-0.1,0.5-0.3,0.7-0.5c0.1-0.1,0.2-0.3,0.3-0.4c0.1-0.1,0.1-0.3,0.1-0.4c0-0.2,0-0.3,0-0.4c0-0.1-0.1-0.3-0.3-0.4l0,0
				c-0.1-0.1-0.2-0.2-0.4-0.2c-0.1,0-0.3,0-0.4,0c-0.1,0-0.3,0.1-0.4,0.1c-0.1,0.1-0.3,0.1-0.4,0.2c-0.1,0.1-0.2,0.1-0.4,0.2
				c-0.1,0.1-0.2,0.1-0.3,0.1c-0.1,0-0.2,0-0.3,0c-0.1,0-0.2-0.1-0.3-0.1l0,0c-0.1-0.1-0.2-0.3-0.2-0.5c0-0.2,0.1-0.4,0.3-0.6
				c0.1-0.1,0.3-0.3,0.5-0.3c0.2-0.1,0.4-0.2,0.6-0.2l-0.1-0.3c-0.2,0-0.4,0.1-0.7,0.2c-0.2,0.1-0.4,0.3-0.6,0.4
				c-0.1,0.1-0.2,0.3-0.3,0.4s-0.1,0.3-0.1,0.4c0,0.1,0,0.3,0.1,0.4c0,0.1,0.1,0.3,0.2,0.4l0,0c0.1,0.1,0.2,0.2,0.4,0.2
				c0.1,0,0.3,0,0.4,0c0.1,0,0.3-0.1,0.4-0.2c0.1-0.1,0.3-0.2,0.4-0.2c0.1-0.1,0.2-0.1,0.3-0.2c0.1-0.1,0.2-0.1,0.3-0.1
				c0.1,0,0.2,0,0.3,0c0.1,0,0.2,0.1,0.3,0.1l0,0c0.2,0.2,0.2,0.3,0.2,0.6c0,0.2-0.1,0.4-0.3,0.6c-0.2,0.2-0.4,0.3-0.6,0.4
				c-0.2,0.1-0.5,0.2-0.7,0.2l0.1,0.4C152,83.8,152.3,83.7,152.5,83.6 M147.5,85c-0.1-0.2-0.1-0.4-0.1-0.5c0-0.2,0-0.3,0.1-0.5
				c0.1-0.2,0.2-0.3,0.3-0.4c0.2-0.2,0.3-0.3,0.5-0.3c0.2-0.1,0.3-0.1,0.5-0.1c0.2,0,0.3,0.1,0.5,0.1c0.2,0.1,0.3,0.2,0.5,0.3
				l-1.9,1.9C147.7,85.4,147.6,85.2,147.5,85 M148.3,86.4c0.2,0.1,0.5,0.2,0.7,0.2s0.5,0,0.7-0.1c0.2-0.1,0.4-0.2,0.6-0.4
				c0.3-0.3,0.4-0.5,0.5-0.8c0.1-0.3,0.1-0.5,0.1-0.8l-0.3,0c0,0.2,0,0.5-0.1,0.7c-0.1,0.2-0.2,0.4-0.4,0.6
				c-0.1,0.1-0.3,0.2-0.4,0.3c-0.2,0.1-0.3,0.1-0.5,0.1c-0.2,0-0.4,0-0.6-0.1c-0.2-0.1-0.4-0.2-0.6-0.3l2.2-2.2c0,0,0,0,0-0.1
				l-0.1-0.1c-0.2-0.2-0.4-0.4-0.6-0.5c-0.2-0.1-0.5-0.2-0.7-0.2s-0.5,0-0.7,0.1c-0.2,0.1-0.4,0.2-0.6,0.4c-0.2,0.2-0.3,0.4-0.4,0.6
				c-0.1,0.2-0.1,0.5-0.1,0.7c0,0.2,0.1,0.5,0.2,0.7c0.1,0.2,0.3,0.4,0.4,0.6l0,0C147.9,86.1,148.1,86.3,148.3,86.4 M142.3,87.2
				l1.2-1.2c0.3-0.3,0.7-0.5,1-0.6c0.3,0,0.6,0.1,0.9,0.3l0,0c0.1,0.1,0.2,0.3,0.3,0.4c0,0.2,0.1,0.3,0,0.5c0,0.2-0.1,0.3-0.2,0.5
				c-0.1,0.2-0.2,0.3-0.4,0.5l-1.2,1.2L142.3,87.2z M145.7,90.6l-1.5-1.5l1.2-1.2l0,0l2.7,0.3l0.3-0.3l-2.8-0.4
				c0.1-0.2,0.2-0.4,0.3-0.5c0.1-0.2,0.1-0.4,0.1-0.5c0-0.2,0-0.4-0.1-0.5c-0.1-0.2-0.2-0.3-0.3-0.5l0,0c-0.1-0.1-0.3-0.2-0.4-0.3
				c-0.2-0.1-0.3-0.1-0.5-0.1c-0.2,0-0.5,0.1-0.7,0.2c-0.2,0.1-0.5,0.3-0.7,0.5l-1.5,1.5l3.6,3.6L145.7,90.6z"/>
		</g>
		<g>
			<path class="st1" d="M277.9,318.7c0.3-0.1,0.5-0.3,0.7-0.5c0.1-0.1,0.2-0.3,0.3-0.4c0.1-0.1,0.1-0.3,0.1-0.4c0-0.2,0-0.3,0-0.4
				c0-0.1-0.1-0.3-0.3-0.4l0,0c-0.1-0.1-0.2-0.2-0.4-0.2c-0.1,0-0.3,0-0.4,0c-0.1,0-0.3,0.1-0.4,0.1c-0.1,0.1-0.3,0.1-0.4,0.2
				c-0.1,0.1-0.2,0.1-0.4,0.2c-0.1,0.1-0.2,0.1-0.3,0.1c-0.1,0-0.2,0-0.3,0c-0.1,0-0.2-0.1-0.3-0.1l0,0c-0.1-0.1-0.2-0.3-0.2-0.5
				c0-0.2,0.1-0.4,0.3-0.6c0.1-0.1,0.3-0.3,0.5-0.3s0.4-0.2,0.6-0.2l-0.1-0.3c-0.2,0-0.4,0.1-0.7,0.2c-0.2,0.1-0.4,0.3-0.6,0.4
				c-0.1,0.1-0.2,0.3-0.3,0.4c-0.1,0.1-0.1,0.3-0.1,0.4c0,0.1,0,0.3,0.1,0.4c0,0.1,0.1,0.3,0.2,0.4l0,0c0.1,0.1,0.2,0.2,0.4,0.2
				c0.1,0,0.3,0,0.4,0c0.1,0,0.3-0.1,0.4-0.2c0.1-0.1,0.3-0.2,0.4-0.2c0.1-0.1,0.2-0.1,0.3-0.2c0.1-0.1,0.2-0.1,0.3-0.1
				c0.1,0,0.2,0,0.3,0c0.1,0,0.2,0.1,0.3,0.1l0,0c0.2,0.2,0.2,0.3,0.2,0.6c0,0.2-0.1,0.4-0.3,0.6c-0.2,0.2-0.4,0.3-0.6,0.4
				c-0.2,0.1-0.5,0.2-0.7,0.2l0.1,0.4C277.3,318.9,277.6,318.9,277.9,318.7 M273,321c-0.2-0.2-0.3-0.3-0.4-0.5
				c-0.1-0.2-0.1-0.4-0.1-0.6s0-0.4,0.1-0.6c0.1-0.2,0.2-0.4,0.3-0.5c0.2-0.2,0.3-0.3,0.5-0.3c0.2-0.1,0.4-0.1,0.6-0.1
				c0.2,0,0.4,0,0.6,0.1c0.2,0.1,0.4,0.2,0.5,0.4l0,0c0.2,0.2,0.3,0.3,0.4,0.5c0.1,0.2,0.1,0.4,0.1,0.6c0,0.2,0,0.4-0.1,0.6
				c-0.1,0.2-0.2,0.4-0.3,0.5c-0.2,0.2-0.3,0.3-0.5,0.3c-0.2,0.1-0.4,0.1-0.6,0.1c-0.2,0-0.4,0-0.6-0.1
				C273.3,321.3,273.2,321.2,273,321L273,321z M273.4,321.7c0.2,0.1,0.5,0.2,0.7,0.2c0.2,0,0.5,0,0.7-0.1c0.2-0.1,0.5-0.2,0.7-0.4
				c0.2-0.2,0.3-0.4,0.4-0.7c0.1-0.2,0.1-0.5,0.1-0.7c0-0.3-0.1-0.5-0.2-0.7s-0.2-0.4-0.4-0.6l0,0c-0.2-0.2-0.4-0.3-0.6-0.4
				c-0.2-0.1-0.5-0.2-0.7-0.2c-0.2,0-0.5,0-0.7,0.1c-0.2,0.1-0.5,0.2-0.7,0.4c-0.2,0.2-0.3,0.4-0.4,0.7s-0.1,0.5-0.1,0.7
				c0,0.3,0.1,0.5,0.2,0.7c0.1,0.2,0.2,0.4,0.4,0.6l0,0C272.9,321.5,273.1,321.6,273.4,321.7 M270.4,324.8c0.2,0.1,0.5,0.1,0.7,0.2
				c0.2,0,0.5,0,0.7-0.1c0.2-0.1,0.5-0.2,0.6-0.4c0.2-0.2,0.4-0.5,0.5-0.8c0.1-0.3,0.1-0.5,0.1-0.8l-0.3,0c0,0.2,0,0.5-0.1,0.7
				c-0.1,0.2-0.2,0.4-0.4,0.6c-0.2,0.2-0.3,0.3-0.5,0.3c-0.2,0.1-0.4,0.1-0.6,0.1c-0.2,0-0.4,0-0.6-0.1c-0.2-0.1-0.4-0.2-0.5-0.4
				l0,0c-0.2-0.2-0.3-0.3-0.4-0.5c-0.1-0.2-0.1-0.4-0.1-0.6c0-0.2,0-0.4,0.1-0.6c0.1-0.2,0.2-0.4,0.3-0.5c0.2-0.2,0.4-0.3,0.6-0.4
				c0.2-0.1,0.5-0.1,0.7-0.1l0-0.4c-0.1,0-0.3,0-0.4,0c-0.1,0-0.3,0-0.4,0.1c-0.1,0-0.3,0.1-0.4,0.2c-0.1,0.1-0.3,0.2-0.4,0.3
				c-0.2,0.2-0.3,0.4-0.4,0.6c-0.1,0.2-0.1,0.5-0.1,0.7c0,0.2,0.1,0.5,0.2,0.7c0.1,0.2,0.2,0.4,0.4,0.6l0,0
				C269.9,324.5,270.1,324.7,270.4,324.8 M270.1,326.6l-2.6-2.6l-0.3,0.3l2.6,2.6L270.1,326.6z M266.8,323.2l-0.3-0.3l-0.3,0.3
				l0.3,0.3L266.8,323.2z M266.8,329.9l-1.5-1.5c-0.1-0.1-0.2-0.3-0.3-0.5c-0.1-0.2-0.1-0.3-0.1-0.5s0-0.3,0.1-0.5
				c0.1-0.2,0.2-0.3,0.3-0.4c0.3-0.3,0.6-0.4,0.9-0.4c0.3,0,0.6,0.2,0.9,0.4l1.6,1.6l0.3-0.3l-1.6-1.6c-0.2-0.2-0.3-0.3-0.5-0.4
				c-0.2-0.1-0.4-0.1-0.6-0.1c-0.2,0-0.4,0-0.6,0.1c-0.2,0.1-0.4,0.2-0.5,0.4c-0.2,0.2-0.4,0.5-0.4,0.8c0,0.3,0,0.5,0,0.8l-0.5-0.5
				l-0.3,0.3l2.6,2.6L266.8,329.9z M261.4,329.1l0-1.1l-0.5,0.2l0.2,1.1L261.4,329.1z M262.7,332.4c-0.2-0.2-0.3-0.4-0.2-0.7
				c0-0.3,0.2-0.5,0.5-0.8c0.2-0.2,0.4-0.3,0.5-0.5c0.2-0.1,0.3-0.2,0.5-0.3l0.3,0.3c0.1,0.1,0.2,0.3,0.3,0.4c0,0.2,0.1,0.3,0,0.5
				c0,0.2-0.1,0.3-0.2,0.5c-0.1,0.2-0.2,0.3-0.3,0.4c-0.1,0.1-0.2,0.2-0.3,0.2c-0.1,0.1-0.2,0.1-0.4,0.1c-0.1,0-0.2,0-0.4,0
				C262.9,332.6,262.8,332.5,262.7,332.4L262.7,332.4z M262.9,333c0.2,0,0.3,0.1,0.5,0c0.2,0,0.3-0.1,0.5-0.2
				c0.2-0.1,0.3-0.2,0.4-0.3c0.1-0.1,0.2-0.3,0.3-0.4c0.1-0.1,0.1-0.3,0.2-0.4c0-0.1,0.1-0.3,0.1-0.4c0-0.1,0-0.2,0-0.3l0.4,0.4
				l0.3-0.3l-1.7-1.7c-0.3-0.3-0.7-0.5-1-0.5c-0.4,0-0.8,0.2-1.1,0.5c-0.2,0.2-0.3,0.4-0.4,0.6c-0.1,0.2-0.2,0.4-0.3,0.6l0.3,0.1
				c0.1-0.2,0.1-0.4,0.2-0.5c0.1-0.2,0.2-0.3,0.4-0.5c0.3-0.3,0.6-0.4,0.8-0.4c0.3,0,0.6,0.1,0.8,0.4l0.1,0.1
				c-0.2,0.1-0.3,0.2-0.5,0.3c-0.2,0.1-0.3,0.3-0.5,0.5c-0.2,0.2-0.3,0.3-0.4,0.5c-0.1,0.2-0.2,0.4-0.2,0.5c0,0.2,0,0.3,0,0.5
				c0,0.2,0.1,0.3,0.3,0.5l0,0C262.6,332.8,262.8,332.9,262.9,333 M258.5,335.2c-0.2-0.2-0.3-0.3-0.3-0.5c-0.1-0.2-0.1-0.4-0.1-0.5
				c0-0.2,0-0.4,0.1-0.5c0.1-0.2,0.2-0.3,0.3-0.5c0.1-0.1,0.3-0.3,0.5-0.3c0.2-0.1,0.4-0.1,0.6-0.1c0.2,0,0.4,0,0.6,0.1
				c0.2,0.1,0.4,0.2,0.5,0.3l0,0c0.2,0.2,0.3,0.3,0.3,0.5c0.1,0.2,0.1,0.4,0.1,0.6c0,0.2-0.1,0.4-0.1,0.6c-0.1,0.2-0.2,0.3-0.3,0.5
				c-0.1,0.1-0.3,0.2-0.5,0.3c-0.2,0.1-0.4,0.1-0.5,0.1c-0.2,0-0.4,0-0.5-0.1C258.9,335.5,258.7,335.4,258.5,335.2L258.5,335.2z
				 M258.9,335.9c0.2,0.1,0.5,0.1,0.7,0.1c0.2,0,0.4-0.1,0.7-0.2c0.2-0.1,0.4-0.2,0.6-0.4c0.1-0.1,0.2-0.3,0.3-0.4
				c0.1-0.1,0.1-0.3,0.2-0.4c0-0.1,0-0.3,0-0.4c0-0.1,0-0.3,0-0.4l0.4,0.4c0.2,0.2,0.3,0.3,0.4,0.5c0.1,0.2,0.1,0.4,0.1,0.5
				c0,0.2,0,0.4-0.1,0.5c-0.1,0.2-0.2,0.3-0.4,0.5c-0.4,0.4-0.9,0.6-1.4,0.7l0.1,0.4c0.6-0.1,1.2-0.4,1.6-0.8
				c0.2-0.2,0.3-0.4,0.5-0.6c0.1-0.2,0.2-0.5,0.2-0.7c0-0.2,0-0.4-0.1-0.6c-0.1-0.2-0.2-0.4-0.4-0.6l-2.2-2.2l-0.3,0.3l0.5,0.5
				c-0.1,0-0.3,0-0.4,0s-0.3,0-0.4,0.1c-0.1,0-0.3,0.1-0.4,0.2c-0.1,0.1-0.3,0.2-0.4,0.3c-0.2,0.2-0.3,0.3-0.4,0.6
				c-0.1,0.2-0.1,0.4-0.2,0.7c0,0.2,0,0.5,0.1,0.7c0.1,0.2,0.2,0.4,0.4,0.6l0,0C258.5,335.7,258.7,335.8,258.9,335.9 M258.1,338.6
				l-1.1-1.1c-0.2-0.2-0.4-0.4-0.5-0.7s-0.2-0.4-0.2-0.7c0-0.2,0-0.4,0.1-0.6c0.1-0.2,0.2-0.4,0.4-0.5l0,0l-0.3-0.3c0,0,0,0,0,0
				c-0.1,0.1-0.2,0.2-0.3,0.4c-0.1,0.2-0.1,0.3-0.2,0.5c0,0.2,0,0.3,0,0.5c0,0.2,0.1,0.4,0.1,0.5l-0.8-0.8l-0.3,0.3l2.6,2.6
				L258.1,338.6z M253.1,340.9c-0.2-0.2-0.3-0.3-0.4-0.5c-0.1-0.2-0.1-0.4-0.1-0.6c0-0.2,0-0.4,0.1-0.6c0.1-0.2,0.2-0.4,0.3-0.5
				c0.2-0.2,0.3-0.3,0.5-0.3c0.2-0.1,0.4-0.1,0.6-0.1c0.2,0,0.4,0,0.6,0.1c0.2,0.1,0.4,0.2,0.5,0.4l0,0c0.2,0.2,0.3,0.3,0.4,0.5
				c0.1,0.2,0.1,0.4,0.1,0.6c0,0.2,0,0.4-0.1,0.6c-0.1,0.2-0.2,0.4-0.3,0.5c-0.2,0.2-0.3,0.3-0.5,0.3c-0.2,0.1-0.4,0.1-0.6,0.1
				c-0.2,0-0.4,0-0.6-0.1C253.5,341.2,253.3,341.1,253.1,340.9L253.1,340.9z M253.5,341.6c0.2,0.1,0.5,0.2,0.7,0.2
				c0.2,0,0.5,0,0.7-0.1c0.2-0.1,0.5-0.2,0.7-0.4c0.2-0.2,0.3-0.4,0.4-0.7c0.1-0.2,0.1-0.5,0.1-0.7c0-0.3-0.1-0.5-0.2-0.7
				c-0.1-0.2-0.2-0.4-0.4-0.6l0,0c-0.2-0.2-0.4-0.3-0.6-0.4c-0.2-0.1-0.5-0.2-0.7-0.2c-0.2,0-0.5,0-0.7,0.1
				c-0.2,0.1-0.5,0.2-0.7,0.4c-0.2,0.2-0.3,0.4-0.4,0.7c-0.1,0.2-0.1,0.5-0.1,0.7c0,0.3,0.1,0.5,0.2,0.7c0.1,0.2,0.2,0.4,0.4,0.6
				l0,0C253.1,341.4,253.3,341.5,253.5,341.6 M250.4,346.2c0.3-0.1,0.5-0.3,0.7-0.5c0.1-0.1,0.2-0.3,0.3-0.4
				c0.1-0.1,0.1-0.3,0.1-0.4c0-0.2,0-0.3,0-0.4c0-0.1-0.1-0.3-0.3-0.4l0,0c-0.1-0.1-0.2-0.2-0.4-0.2c-0.1,0-0.3,0-0.4,0
				c-0.1,0-0.3,0.1-0.4,0.1c-0.1,0.1-0.3,0.1-0.4,0.2c-0.1,0.1-0.2,0.1-0.4,0.2c-0.1,0.1-0.2,0.1-0.3,0.1c-0.1,0-0.2,0-0.3,0
				s-0.2-0.1-0.3-0.1l0,0c-0.1-0.1-0.2-0.3-0.2-0.5c0-0.2,0.1-0.4,0.3-0.6c0.1-0.1,0.3-0.3,0.5-0.3c0.2-0.1,0.4-0.2,0.6-0.2
				l-0.1-0.3c-0.2,0-0.4,0.1-0.7,0.2c-0.2,0.1-0.4,0.3-0.6,0.4c-0.1,0.1-0.2,0.3-0.3,0.4s-0.1,0.3-0.1,0.4c0,0.1,0,0.3,0.1,0.4
				c0,0.1,0.1,0.3,0.2,0.4l0,0c0.1,0.1,0.2,0.2,0.4,0.2c0.1,0,0.3,0,0.4,0c0.1,0,0.3-0.1,0.4-0.2c0.1-0.1,0.3-0.2,0.4-0.2
				c0.1-0.1,0.2-0.1,0.3-0.2c0.1-0.1,0.2-0.1,0.3-0.1c0.1,0,0.2,0,0.3,0c0.1,0,0.2,0.1,0.3,0.1l0,0c0.2,0.2,0.2,0.3,0.2,0.6
				c0,0.2-0.1,0.4-0.3,0.6c-0.2,0.2-0.4,0.3-0.6,0.4c-0.2,0.1-0.5,0.2-0.7,0.2l0.1,0.4C249.8,346.4,250.1,346.4,250.4,346.2
				 M245.5,348.5c-0.2-0.2-0.3-0.3-0.4-0.5c-0.1-0.2-0.1-0.4-0.1-0.6c0-0.2,0-0.4,0.1-0.6c0.1-0.2,0.2-0.4,0.3-0.5
				c0.2-0.2,0.3-0.3,0.5-0.3c0.2-0.1,0.4-0.1,0.6-0.1c0.2,0,0.4,0,0.6,0.1c0.2,0.1,0.4,0.2,0.5,0.4l0,0c0.2,0.2,0.3,0.3,0.4,0.5
				c0.1,0.2,0.1,0.4,0.1,0.6c0,0.2,0,0.4-0.1,0.6c-0.1,0.2-0.2,0.4-0.3,0.5c-0.2,0.2-0.3,0.3-0.5,0.3c-0.2,0.1-0.4,0.1-0.6,0.1
				c-0.2,0-0.4,0-0.6-0.1C245.8,348.8,245.7,348.7,245.5,348.5L245.5,348.5z M245.9,349.3c0.2,0.1,0.5,0.2,0.7,0.2
				c0.2,0,0.5,0,0.7-0.1c0.2-0.1,0.5-0.2,0.7-0.4c0.2-0.2,0.3-0.4,0.4-0.7c0.1-0.2,0.1-0.5,0.1-0.7c0-0.3-0.1-0.5-0.2-0.7
				c-0.1-0.2-0.2-0.4-0.4-0.6l0,0c-0.2-0.2-0.4-0.3-0.6-0.4c-0.2-0.1-0.5-0.2-0.7-0.2c-0.2,0-0.5,0-0.7,0.1
				c-0.2,0.1-0.5,0.2-0.7,0.4c-0.2,0.2-0.3,0.4-0.4,0.7c-0.1,0.2-0.1,0.5-0.1,0.7c0,0.3,0.1,0.5,0.2,0.7s0.2,0.4,0.4,0.6l0,0
				C245.4,349,245.6,349.2,245.9,349.3 M242.9,352.7c0.2,0.1,0.4,0.1,0.6,0.1c0.2,0,0.4,0,0.6-0.1c0.2-0.1,0.4-0.2,0.5-0.4
				c0.2-0.2,0.4-0.5,0.4-0.8c0-0.3,0-0.5,0-0.8l0.5,0.5l0.3-0.3l-2.6-2.6l-0.3,0.3l1.5,1.5c0.1,0.1,0.2,0.3,0.3,0.5
				c0.1,0.2,0.1,0.3,0.1,0.5c0,0.2,0,0.3-0.1,0.5c-0.1,0.2-0.2,0.3-0.3,0.4c-0.3,0.3-0.6,0.4-0.9,0.4c-0.3,0-0.6-0.2-0.9-0.4
				l-1.6-1.6l-0.3,0.3l1.6,1.6C242.5,352.4,242.7,352.6,242.9,352.7 M238.6,355.4c-0.2-0.2-0.3-0.4-0.4-0.6
				c-0.1-0.2-0.1-0.4-0.1-0.6s0-0.4,0.1-0.6c0.1-0.2,0.2-0.3,0.3-0.5c0.1-0.1,0.3-0.2,0.5-0.3c0.2-0.1,0.4-0.1,0.6-0.1
				c0.2,0,0.4,0,0.6,0.1c0.2,0.1,0.4,0.2,0.6,0.4l0,0c0.2,0.2,0.3,0.4,0.4,0.6c0.1,0.2,0.1,0.4,0.1,0.6c0,0.2,0,0.4-0.1,0.6
				c-0.1,0.2-0.2,0.3-0.3,0.5c-0.1,0.1-0.3,0.2-0.5,0.3c-0.2,0.1-0.4,0.1-0.6,0.1c-0.2,0-0.4,0-0.6-0.1
				C239,355.7,238.8,355.6,238.6,355.4L238.6,355.4z M239.1,356.1c0.2,0.1,0.5,0.1,0.7,0.1c0.2,0,0.5-0.1,0.7-0.1
				c0.2-0.1,0.4-0.2,0.6-0.4c0.1-0.1,0.2-0.3,0.3-0.4c0.1-0.1,0.1-0.3,0.2-0.4c0-0.1,0-0.3,0-0.4c0-0.2,0-0.3-0.1-0.4l0.6,0.6
				l0.3-0.3l-3.8-3.8l-0.3,0.3l1.7,1.7c-0.1,0-0.3,0-0.4,0c-0.1,0-0.3,0-0.4,0c-0.1,0-0.3,0.1-0.4,0.2c-0.1,0.1-0.3,0.2-0.4,0.3
				c-0.2,0.2-0.3,0.3-0.4,0.6c-0.1,0.2-0.1,0.4-0.1,0.7c0,0.2,0,0.5,0.1,0.7c0.1,0.2,0.3,0.5,0.5,0.7l0,0
				C238.6,355.9,238.8,356,239.1,356.1 M238.8,357.9l-2.6-2.6l-0.3,0.3l2.6,2.6L238.8,357.9z M235.5,354.5l-0.3-0.3l-0.3,0.3
				l0.3,0.3L235.5,354.5z M236.1,360.5c0.3-0.1,0.5-0.3,0.7-0.5c0.1-0.1,0.2-0.3,0.3-0.4c0.1-0.1,0.1-0.3,0.1-0.4c0-0.2,0-0.3,0-0.4
				c0-0.1-0.1-0.3-0.3-0.4l0,0c-0.1-0.1-0.2-0.2-0.4-0.2c-0.1,0-0.3,0-0.4,0s-0.3,0.1-0.4,0.1c-0.1,0.1-0.3,0.1-0.4,0.2
				c-0.1,0.1-0.2,0.1-0.4,0.2c-0.1,0.1-0.2,0.1-0.3,0.1c-0.1,0-0.2,0-0.3,0s-0.2-0.1-0.3-0.1l0,0c-0.1-0.1-0.2-0.3-0.2-0.5
				c0-0.2,0.1-0.4,0.3-0.6c0.1-0.1,0.3-0.3,0.5-0.3s0.4-0.2,0.6-0.2l-0.1-0.3c-0.2,0-0.4,0.1-0.7,0.2c-0.2,0.1-0.4,0.3-0.6,0.4
				c-0.1,0.1-0.2,0.3-0.3,0.4c-0.1,0.1-0.1,0.3-0.1,0.4c0,0.1,0,0.3,0.1,0.4c0,0.1,0.1,0.3,0.2,0.4l0,0c0.1,0.1,0.2,0.2,0.4,0.2
				c0.1,0,0.3,0,0.4,0c0.1,0,0.3-0.1,0.4-0.2c0.1-0.1,0.3-0.2,0.4-0.2c0.1-0.1,0.2-0.1,0.3-0.2c0.1-0.1,0.2-0.1,0.3-0.1
				c0.1,0,0.2,0,0.3,0c0.1,0,0.2,0.1,0.3,0.1l0,0c0.2,0.2,0.2,0.3,0.2,0.6c0,0.2-0.1,0.4-0.3,0.6c-0.2,0.2-0.4,0.3-0.6,0.4
				c-0.2,0.1-0.5,0.2-0.7,0.2l0.1,0.4C235.5,360.7,235.8,360.6,236.1,360.5 M231,362c-0.1-0.2-0.1-0.4-0.1-0.5c0-0.2,0-0.3,0.1-0.5
				c0.1-0.2,0.2-0.3,0.3-0.4c0.2-0.2,0.3-0.3,0.5-0.3c0.2-0.1,0.3-0.1,0.5-0.1c0.2,0,0.3,0.1,0.5,0.1c0.2,0.1,0.3,0.2,0.5,0.3
				l-1.9,1.9C231.2,362.3,231.1,362.1,231,362 M231.9,363.3c0.2,0.1,0.5,0.2,0.7,0.2c0.2,0,0.5,0,0.7-0.1c0.2-0.1,0.4-0.2,0.6-0.4
				c0.3-0.3,0.4-0.5,0.5-0.8c0.1-0.3,0.1-0.5,0.1-0.8l-0.3,0c0,0.2,0,0.5-0.1,0.7c-0.1,0.2-0.2,0.4-0.4,0.6
				c-0.1,0.1-0.3,0.2-0.4,0.3c-0.2,0.1-0.3,0.1-0.5,0.1c-0.2,0-0.4,0-0.6-0.1s-0.4-0.2-0.6-0.3l2.2-2.2c0,0,0,0,0-0.1
				c0,0,0,0-0.1-0.1c-0.2-0.2-0.4-0.4-0.6-0.5c-0.2-0.1-0.5-0.2-0.7-0.2c-0.2,0-0.5,0-0.7,0.1c-0.2,0.1-0.4,0.2-0.6,0.4
				c-0.2,0.2-0.3,0.4-0.4,0.6c-0.1,0.2-0.1,0.5-0.1,0.7c0,0.2,0.1,0.5,0.2,0.7c0.1,0.2,0.3,0.4,0.4,0.6l0,0
				C231.4,363.1,231.6,363.2,231.9,363.3 M225.8,364.1l1.2-1.2c0.3-0.3,0.7-0.5,1-0.6c0.3,0,0.6,0.1,0.9,0.3l0,0
				c0.1,0.1,0.2,0.3,0.3,0.4c0,0.2,0.1,0.3,0,0.5c0,0.2-0.1,0.3-0.2,0.5c-0.1,0.2-0.2,0.3-0.4,0.5l-1.2,1.2L225.8,364.1z
				 M229.2,367.5l-1.5-1.5l1.2-1.2l0,0l2.7,0.3l0.3-0.3l-2.8-0.4c0.1-0.2,0.2-0.4,0.3-0.5c0.1-0.2,0.1-0.4,0.1-0.5
				c0-0.2,0-0.4-0.1-0.5c-0.1-0.2-0.2-0.3-0.3-0.5l0,0c-0.1-0.1-0.3-0.2-0.4-0.3c-0.2-0.1-0.3-0.1-0.5-0.1c-0.2,0-0.5,0.1-0.7,0.2
				c-0.2,0.1-0.5,0.3-0.7,0.5l-1.5,1.5l3.6,3.6L229.2,367.5z"/>
		</g>
	</g>
	<g>
		<defs>
			<path id="SVGID_2_" d="M8.5,173.5c0.1,0.3,0.2,0.5,0.3,0.7c0.2,0.2,0.4,0.3,0.7,0.3l0.7,0.1l0.1-0.6l-0.8-0.1l0,0.3
				c-0.2,0-0.3-0.1-0.4-0.2c-0.1-0.1-0.2-0.3-0.3-0.5L8.5,173.5z M11,160.7c-0.2,0.3-0.4,0.7-0.5,1.2c-0.1,0.3-0.1,0.6-0.1,0.9
				c0,0.3,0.1,0.5,0.2,0.8c0.1,0.2,0.3,0.4,0.5,0.6c0.2,0.2,0.4,0.3,0.7,0.3l0,0c0.3,0.1,0.5,0.1,0.7,0c0.2,0,0.4-0.1,0.6-0.3
				c0.2-0.1,0.4-0.4,0.5-0.6c0.2-0.3,0.4-0.6,0.5-1c0.2-0.4,0.3-0.7,0.5-0.9c0.1-0.2,0.3-0.4,0.4-0.5c0.1-0.1,0.3-0.2,0.4-0.2
				c0.2,0,0.3,0,0.5,0l0,0c0.2,0,0.4,0.1,0.5,0.2c0.1,0.1,0.3,0.3,0.3,0.4c0.1,0.2,0.1,0.4,0.2,0.6c0,0.2,0,0.5-0.1,0.7
				c-0.1,0.2-0.1,0.5-0.2,0.7c-0.1,0.2-0.2,0.4-0.3,0.6c-0.1,0.2-0.3,0.3-0.4,0.5c-0.2,0.2-0.4,0.3-0.6,0.4l0.3,0.4
				c0.4-0.3,0.8-0.7,1.1-1.1c0.3-0.4,0.5-0.9,0.6-1.4c0.1-0.3,0.1-0.6,0.1-0.9c0-0.3-0.1-0.6-0.2-0.8c-0.1-0.2-0.3-0.4-0.5-0.6
				c-0.2-0.2-0.4-0.3-0.7-0.3l0,0c-0.5-0.1-0.9,0-1.3,0.3c-0.4,0.3-0.7,0.8-1.1,1.5c-0.2,0.4-0.3,0.7-0.5,0.9
				c-0.2,0.2-0.3,0.4-0.5,0.5c-0.2,0.1-0.3,0.2-0.5,0.2c-0.2,0-0.3,0-0.5,0l0,0c-0.2,0-0.3-0.1-0.5-0.2c-0.1-0.1-0.2-0.3-0.3-0.4
				c-0.1-0.2-0.1-0.4-0.2-0.6c0-0.2,0-0.4,0.1-0.7c0.1-0.4,0.2-0.7,0.4-1c0.2-0.3,0.5-0.6,0.8-0.8l-0.3-0.4
				C11.5,160,11.3,160.3,11,160.7 M13.8,150.5l0.6-1.9c0.1-0.3,0.2-0.6,0.4-0.8c0.1-0.2,0.3-0.4,0.5-0.5c0.2-0.1,0.4-0.2,0.6-0.3
				c0.2,0,0.5,0,0.7,0.1l0,0c0.2,0.1,0.4,0.2,0.6,0.4c0.2,0.2,0.3,0.4,0.4,0.6c0.1,0.2,0.1,0.5,0.1,0.7c0,0.3,0,0.6-0.1,0.9
				l-0.6,1.8L13.8,150.5z M15.8,146.5c-0.3,0-0.5,0.1-0.8,0.3s-0.4,0.4-0.6,0.6c-0.2,0.3-0.3,0.6-0.4,0.9l-0.7,2.4l6.6,2l0.1-0.5
				l-2.4-0.7l0.5-1.8c0.1-0.3,0.2-0.7,0.2-1c0-0.3,0-0.6-0.1-0.9c-0.1-0.3-0.3-0.5-0.5-0.8c-0.2-0.2-0.5-0.4-0.8-0.5l0,0
				c-0.2-0.1-0.4-0.1-0.6-0.1C16,146.5,15.9,146.5,15.8,146.5 M20.5,138.7L20.5,138.7c-0.4-0.2-0.8-0.4-1.1-0.6
				c-0.3-0.3-0.5-0.6-0.7-0.9c-0.2-0.3-0.3-0.7-0.3-1.1c0-0.4,0-0.8,0.2-1.2c0.2-0.4,0.4-0.7,0.7-1c0.3-0.3,0.6-0.5,1-0.6
				c0.4-0.1,0.7-0.2,1.1-0.2c0.4,0,0.8,0.1,1.2,0.2l0,0c0.4,0.2,0.7,0.4,1,0.6c0.3,0.3,0.5,0.6,0.7,0.9s0.3,0.7,0.3,1.1
				c0,0.4,0,0.8-0.2,1.2c-0.2,0.4-0.4,0.7-0.7,1c-0.3,0.3-0.6,0.5-1,0.6c-0.4,0.1-0.7,0.2-1.1,0.2C21.3,138.9,20.9,138.9,20.5,138.7
				 M20.2,132.7c-0.4,0.2-0.8,0.4-1.1,0.7c-0.3,0.3-0.6,0.7-0.8,1.2c-0.2,0.5-0.3,1-0.2,1.4c0,0.5,0.1,0.9,0.3,1.3
				c0.2,0.4,0.5,0.8,0.8,1.1c0.3,0.3,0.7,0.6,1.2,0.7l0,0c0.4,0.2,0.9,0.3,1.3,0.3c0.5,0,0.9-0.1,1.3-0.2c0.4-0.2,0.8-0.4,1.1-0.7
				c0.3-0.3,0.6-0.7,0.8-1.2c0.2-0.5,0.3-1,0.2-1.4c0-0.5-0.1-0.9-0.3-1.3c-0.2-0.4-0.5-0.8-0.8-1.1c-0.3-0.3-0.7-0.6-1.2-0.7
				c0,0,0,0,0,0c0,0,0,0,0,0c-0.4-0.2-0.9-0.3-1.3-0.3c0,0,0,0,0,0C21,132.5,20.6,132.6,20.2,132.7 M22.6,124.2l0.4,0.2l1-2.2
				l5.8,2.8l0.2-0.5l-5.8-2.8l1-2.2l-0.4-0.2L22.6,124.2z M33.8,102.4l5.7,3.8l0.3-0.4l-2.6-1.7l2.1-3.2l-0.4-0.3l-2.1,3.2l-2.4-1.5
				l2.4-3.6l-0.4-0.3L33.8,102.4z M41.8,90.9l1.4-1.9c0.4-0.5,0.8-0.8,1.2-0.9c0.4-0.1,0.8,0,1.2,0.3l0,0c0.2,0.2,0.3,0.3,0.4,0.5
				c0.1,0.2,0.1,0.4,0.1,0.6c0,0.2,0,0.5-0.1,0.7c-0.1,0.2-0.2,0.5-0.4,0.7l-1.4,1.8L41.8,90.9z M44.6,87.6c-0.3,0-0.6,0.2-0.9,0.3
				c-0.3,0.2-0.6,0.4-0.8,0.8L41.1,91l5.5,4.2l0.3-0.4l-2.3-1.7l1.3-1.8l0,0l3.6,0l0.4-0.5l-3.7,0c0.1-0.3,0.2-0.5,0.3-0.8
				c0.1-0.3,0.1-0.5,0.1-0.7c0-0.2-0.1-0.5-0.2-0.7c-0.1-0.2-0.3-0.4-0.5-0.6l0,0c-0.2-0.2-0.4-0.3-0.6-0.3c-0.2,0-0.3-0.1-0.5-0.1
				C44.7,87.6,44.6,87.6,44.6,87.6 M49.8,79.6l5.1,4.5l3.3-3.7l-0.4-0.3l-2.9,3.3l-2.1-1.8l2.6-2.9l-0.4-0.3l-2.6,2.9l-2-1.8
				l2.9-3.3L53,75.9L49.8,79.6z M58.8,69.3l4.8,4.9l3.5-3.5l-0.3-0.3l-3.2,3.1l-1.9-2l2.8-2.8l-0.3-0.3l-2.8,2.8l-1.9-1.9l3.1-3.1
				l-0.3-0.3L58.8,69.3z M69.3,59.1l0.6,0.6l0.2-0.2c0.1,0.1,0.2,0.3,0.2,0.4c0,0.1,0,0.3-0.1,0.6l0.3,0.1c0.1-0.3,0.2-0.5,0.2-0.7
				c0-0.2-0.1-0.4-0.4-0.7l-0.5-0.5L69.3,59.1z"/>
		</defs>
		<clipPath id="SVGID_3_">
			<use xlink:href="#SVGID_2_"  style="overflow:visible;"/>
		</clipPath>
		<g class="st5">
			<defs>
				<rect id="SVGID_4_" x="8.5" y="58.6" width="62.1" height="115.9"/>
			</defs>
			<clipPath id="SVGID_5_">
				<use xlink:href="#SVGID_4_"  style="overflow:visible;"/>
			</clipPath>
			<g class="st6">
				<path class="st1" d="M8.5,58.6v115.9V58.6z"/>
			</g>
			<g class="st6">
				<rect x="8.5" y="58.6" class="st1" width="0.5" height="115.9"/>
			</g>
			<g class="st6">
				<rect x="9.1" y="58.6" class="st7" width="0.5" height="115.9"/>
			</g>
			<g class="st6">
				<rect x="9.6" y="58.6" class="st8" width="0.5" height="115.9"/>
			</g>
			<g class="st6">
				<rect x="10.1" y="58.6" class="st9" width="0.5" height="115.9"/>
			</g>
			<g class="st6">
				<rect x="10.6" y="58.6" class="st10" width="0.5" height="115.9"/>
			</g>
			<g class="st6">
				<rect x="11.2" y="58.6" class="st11" width="0.5" height="115.9"/>
			</g>
			<g class="st6">
				<rect x="11.7" y="58.6" class="st12" width="0.5" height="115.9"/>
			</g>
			<g class="st6">
				<rect x="12.2" y="58.6" class="st13" width="0.5" height="115.9"/>
			</g>
			<g class="st6">
				<rect x="12.7" y="58.6" class="st14" width="0.5" height="115.9"/>
			</g>
			<g class="st6">
				<rect x="13.3" y="58.6" class="st15" width="0.5" height="115.9"/>
			</g>
			<g class="st6">
				<rect x="13.8" y="58.6" class="st16" width="0.5" height="115.9"/>
			</g>
			<g class="st6">
				<rect x="14.3" y="58.6" class="st17" width="0.5" height="115.9"/>
			</g>
			<g class="st6">
				<rect x="14.8" y="58.6" class="st18" width="0.5" height="115.9"/>
			</g>
			<g class="st6">
				<rect x="15.4" y="58.6" class="st19" width="0.5" height="115.9"/>
			</g>
			<g class="st6">
				<rect x="15.9" y="58.6" class="st20" width="0.5" height="115.9"/>
			</g>
			<g class="st6">
				<rect x="16.4" y="58.6" class="st21" width="0.5" height="115.9"/>
			</g>
			<g class="st6">
				<rect x="16.9" y="58.6" class="st22" width="0.5" height="115.9"/>
			</g>
			<g class="st6">
				<rect x="17.5" y="58.6" class="st23" width="0.5" height="115.9"/>
			</g>
			<g class="st6">
				<rect x="18" y="58.6" class="st24" width="0.5" height="115.9"/>
			</g>
			<g class="st6">
				<rect x="18.5" y="58.6" class="st25" width="0.5" height="115.9"/>
			</g>
			<g class="st6">
				<rect x="19" y="58.6" class="st26" width="0.5" height="115.9"/>
			</g>
			<g class="st6">
				<rect x="19.6" y="58.6" class="st27" width="0.5" height="115.9"/>
			</g>
			<g class="st6">
				<rect x="20.1" y="58.6" class="st28" width="0.5" height="115.9"/>
			</g>
			<g class="st6">
				<rect x="20.6" y="58.6" class="st29" width="0.5" height="115.9"/>
			</g>
			<g class="st6">
				<rect x="21.1" y="58.6" class="st30" width="0.5" height="115.9"/>
			</g>
			<g class="st6">
				<rect x="21.7" y="58.6" class="st31" width="0.5" height="115.9"/>
			</g>
			<g class="st6">
				<rect x="22.2" y="58.6" class="st32" width="0.5" height="115.9"/>
			</g>
			<g class="st6">
				<rect x="22.7" y="58.6" class="st33" width="0.5" height="115.9"/>
			</g>
			<g class="st6">
				<rect x="23.3" y="58.6" class="st34" width="0.5" height="115.9"/>
			</g>
			<g class="st6">
				<rect x="23.8" y="58.6" class="st35" width="0.5" height="115.9"/>
			</g>
			<g class="st6">
				<rect x="24.3" y="58.6" class="st36" width="0.5" height="115.9"/>
			</g>
			<g class="st6">
				<rect x="24.8" y="58.6" class="st37" width="0.5" height="115.9"/>
			</g>
			<g class="st6">
				<rect x="25.4" y="58.6" class="st38" width="0.5" height="115.9"/>
			</g>
			<g class="st6">
				<rect x="25.9" y="58.6" class="st39" width="0.5" height="115.9"/>
			</g>
			<g class="st6">
				<rect x="26.4" y="58.6" class="st40" width="0.5" height="115.9"/>
			</g>
			<g class="st6">
				<rect x="26.9" y="58.6" class="st41" width="0.5" height="115.9"/>
			</g>
			<g class="st6">
				<rect x="27.5" y="58.6" class="st42" width="0.5" height="115.9"/>
			</g>
			<g class="st6">
				<rect x="28" y="58.6" class="st43" width="0.5" height="115.9"/>
			</g>
			<g class="st6">
				<rect x="28.5" y="58.6" class="st44" width="0.5" height="115.9"/>
			</g>
			<g class="st6">
				<rect x="29" y="58.6" class="st45" width="0.5" height="115.9"/>
			</g>
			<g class="st6">
				<rect x="29.6" y="58.6" class="st46" width="0.5" height="115.9"/>
			</g>
			<g class="st6">
				<rect x="30.1" y="58.6" class="st47" width="0.5" height="115.9"/>
			</g>
			<g class="st6">
				<rect x="30.6" y="58.6" class="st48" width="0.5" height="115.9"/>
			</g>
			<g class="st6">
				<rect x="31.1" y="58.6" class="st49" width="0.5" height="115.9"/>
			</g>
			<g class="st6">
				<rect x="31.7" y="58.6" class="st50" width="0.5" height="115.9"/>
			</g>
			<g class="st6">
				<rect x="32.2" y="58.6" class="st51" width="0.5" height="115.9"/>
			</g>
			<g class="st6">
				<rect x="32.7" y="58.6" class="st52" width="0.5" height="115.9"/>
			</g>
			<g class="st6">
				<rect x="33.2" y="58.6" class="st53" width="0.5" height="115.9"/>
			</g>
			<g class="st6">
				<rect x="33.8" y="58.6" class="st54" width="0.5" height="115.9"/>
			</g>
			<g class="st6">
				<rect x="34.3" y="58.6" class="st55" width="0.5" height="115.9"/>
			</g>
			<g class="st6">
				<rect x="34.8" y="58.6" class="st56" width="0.5" height="115.9"/>
			</g>
			<g class="st6">
				<rect x="35.3" y="58.6" class="st57" width="0.5" height="115.9"/>
			</g>
			<g class="st6">
				<rect x="35.9" y="58.6" class="st58" width="0.5" height="115.9"/>
			</g>
			<g class="st6">
				<rect x="36.4" y="58.6" class="st59" width="0.5" height="115.9"/>
			</g>
			<g class="st6">
				<rect x="36.9" y="58.6" class="st60" width="0.5" height="115.9"/>
			</g>
			<g class="st6">
				<rect x="37.4" y="58.6" class="st61" width="0.5" height="115.9"/>
			</g>
			<g class="st6">
				<rect x="38" y="58.6" class="st62" width="0.5" height="115.9"/>
			</g>
			<g class="st6">
				<rect x="38.5" y="58.6" class="st63" width="0.5" height="115.9"/>
			</g>
			<g class="st6">
				<rect x="39" y="58.6" class="st64" width="0.5" height="115.9"/>
			</g>
			<g class="st6">
				<rect x="39.5" y="58.6" class="st65" width="0.5" height="115.9"/>
			</g>
			<g class="st6">
				<rect x="40.1" y="58.6" class="st66" width="0.5" height="115.9"/>
			</g>
			<g class="st6">
				<rect x="40.6" y="58.6" class="st67" width="0.5" height="115.9"/>
			</g>
			<g class="st6">
				<rect x="41.1" y="58.6" class="st68" width="0.5" height="115.9"/>
			</g>
			<g class="st6">
				<rect x="41.6" y="58.6" class="st69" width="0.5" height="115.9"/>
			</g>
			<g class="st6">
				<rect x="42.2" y="58.6" class="st70" width="0.5" height="115.9"/>
			</g>
			<g class="st6">
				<rect x="42.7" y="58.6" class="st71" width="0.5" height="115.9"/>
			</g>
			<g class="st6">
				<rect x="43.2" y="58.6" class="st72" width="0.5" height="115.9"/>
			</g>
			<g class="st6">
				<rect x="43.8" y="58.6" class="st73" width="0.5" height="115.9"/>
			</g>
			<g class="st6">
				<rect x="44.3" y="58.6" class="st74" width="0.5" height="115.9"/>
			</g>
			<g class="st6">
				<rect x="44.8" y="58.6" class="st75" width="0.5" height="115.9"/>
			</g>
			<g class="st6">
				<rect x="45.3" y="58.6" class="st76" width="0.5" height="115.9"/>
			</g>
			<g class="st6">
				<rect x="45.9" y="58.6" class="st77" width="0.5" height="115.9"/>
			</g>
			<g class="st6">
				<rect x="46.4" y="58.6" class="st78" width="0.5" height="115.9"/>
			</g>
			<g class="st6">
				<rect x="46.9" y="58.6" class="st79" width="0.5" height="115.9"/>
			</g>
			<g class="st6">
				<rect x="47.4" y="58.6" class="st80" width="0.5" height="115.9"/>
			</g>
			<g class="st6">
				<rect x="48" y="58.6" class="st81" width="0.5" height="115.9"/>
			</g>
			<g class="st6">
				<rect x="48.5" y="58.6" class="st82" width="0.5" height="115.9"/>
			</g>
			<g class="st6">
				<rect x="49" y="58.6" class="st83" width="0.5" height="115.9"/>
			</g>
			<g class="st6">
				<rect x="49.5" y="58.6" class="st84" width="0.5" height="115.9"/>
			</g>
			<g class="st6">
				<rect x="50.1" y="58.6" class="st85" width="0.5" height="115.9"/>
			</g>
			<g class="st6">
				<rect x="50.6" y="58.6" class="st86" width="0.5" height="115.9"/>
			</g>
			<g class="st6">
				<rect x="51.1" y="58.6" class="st87" width="0.5" height="115.9"/>
			</g>
			<g class="st6">
				<rect x="51.6" y="58.6" class="st88" width="0.5" height="115.9"/>
			</g>
			<g class="st6">
				<rect x="52.2" y="58.6" class="st89" width="0.5" height="115.9"/>
			</g>
			<g class="st6">
				<rect x="52.7" y="58.6" class="st90" width="0.5" height="115.9"/>
			</g>
			<g class="st6">
				<rect x="53.2" y="58.6" class="st91" width="0.5" height="115.9"/>
			</g>
			<g class="st6">
				<rect x="53.7" y="58.6" class="st92" width="0.5" height="115.9"/>
			</g>
			<g class="st6">
				<rect x="54.3" y="58.6" class="st93" width="0.5" height="115.9"/>
			</g>
			<g class="st6">
				<rect x="54.8" y="58.6" class="st94" width="0.5" height="115.9"/>
			</g>
			<g class="st6">
				<rect x="55.3" y="58.6" class="st95" width="0.5" height="115.9"/>
			</g>
			<g class="st6">
				<rect x="55.8" y="58.6" class="st96" width="0.5" height="115.9"/>
			</g>
			<g class="st6">
				<rect x="56.4" y="58.6" class="st97" width="0.5" height="115.9"/>
			</g>
			<g class="st6">
				<rect x="56.9" y="58.6" class="st98" width="0.5" height="115.9"/>
			</g>
			<g class="st6">
				<rect x="57.4" y="58.6" class="st99" width="0.5" height="115.9"/>
			</g>
			<g class="st6">
				<rect x="57.9" y="58.6" class="st100" width="0.5" height="115.9"/>
			</g>
			<g class="st6">
				<rect x="58.5" y="58.6" class="st101" width="0.5" height="115.9"/>
			</g>
			<g class="st6">
				<rect x="59" y="58.6" class="st102" width="0.5" height="115.9"/>
			</g>
			<g class="st6">
				<rect x="59.5" y="58.6" class="st103" width="0.5" height="115.9"/>
			</g>
			<g class="st6">
				<rect x="60" y="58.6" class="st104" width="0.5" height="115.9"/>
			</g>
			<g class="st6">
				<rect x="60.6" y="58.6" class="st105" width="0.5" height="115.9"/>
			</g>
			<g class="st6">
				<rect x="61.1" y="58.6" class="st106" width="0.5" height="115.9"/>
			</g>
			<g class="st6">
				<rect x="61.6" y="58.6" class="st107" width="0.5" height="115.9"/>
			</g>
			<g class="st6">
				<rect x="62.1" y="58.6" class="st108" width="0.5" height="115.9"/>
			</g>
			<g class="st6">
				<rect x="62.7" y="58.6" class="st109" width="0.5" height="115.9"/>
			</g>
			<g class="st6">
				<rect x="63.2" y="58.6" class="st110" width="0.5" height="115.9"/>
			</g>
			<g class="st6">
				<rect x="63.7" y="58.6" class="st111" width="0.5" height="115.9"/>
			</g>
			<g class="st6">
				<rect x="64.3" y="58.6" class="st112" width="0.5" height="115.9"/>
			</g>
			<g class="st6">
				<rect x="64.8" y="58.6" class="st113" width="0.5" height="115.9"/>
			</g>
			<g class="st6">
				<rect x="65.3" y="58.6" class="st114" width="0.5" height="115.9"/>
			</g>
			<g class="st6">
				<rect x="65.8" y="58.6" class="st115" width="0.5" height="115.9"/>
			</g>
			<g class="st6">
				<rect x="66.4" y="58.6" class="st116" width="0.5" height="115.9"/>
			</g>
			<g class="st6">
				<rect x="66.9" y="58.6" class="st117" width="0.5" height="115.9"/>
			</g>
			<g class="st6">
				<rect x="67.4" y="58.6" class="st118" width="0.5" height="115.9"/>
			</g>
			<g class="st6">
				<rect x="67.9" y="58.6" class="st119" width="0.5" height="115.9"/>
			</g>
			<g class="st6">
				<rect x="68.5" y="58.6" class="st120" width="0.5" height="115.9"/>
			</g>
			<g class="st6">
				<rect x="69" y="58.6" class="st121" width="0.5" height="115.9"/>
			</g>
			<g class="st6">
				<rect x="69.5" y="58.6" class="st122" width="0.5" height="115.9"/>
			</g>
			<g class="st6">
				<rect x="70" y="58.6" class="st2" width="0.5" height="115.9"/>
			</g>
			<g class="st6">
				<rect x="70.6" y="58.6" class="st2" width="0.1" height="115.9"/>
			</g>
		</g>
	</g>
</g>
</svg>
