<?xml version="1.0" encoding="utf-8"?>
<!-- Generator: Adobe Illustrator 24.1.0, SVG Export Plug-In . SVG Version: 6.00 Build 0)  -->
<svg version="1.1" id="Layer_1" xmlns="http://www.w3.org/2000/svg" xmlns:xlink="http://www.w3.org/1999/xlink" x="0px" y="0px"
	 viewBox="0 0 85 85" style="enable-background:new 0 0 85 85;" xml:space="preserve">
<style type="text/css">
	.st0{fill:#4BBAB5;}
</style>
<g>
	<path class="st0" d="M48.6,65.8l2.3,1.9l3.2-3.3l-1.9-2.3c0.7-1.1,1.2-2.2,1.4-3.5l2.9-0.3v-4.6l-2.9-0.3c-0.3-1.2-0.8-2.4-1.4-3.5
		l1.9-2.3l-3.2-3.3l-2.3,1.9c-1.1-0.7-2.2-1.2-3.5-1.4l-0.3-3h-4.6l-0.3,3c-1.2,0.3-2.4,0.8-3.5,1.4l-2.3-1.9l-3.2,3.3l1.9,2.3
		c-0.7,1.1-1.1,2.2-1.4,3.5l-3,0.3v4.6l3,0.3c0.3,1.2,0.8,2.4,1.4,3.5l-1.9,2.3l3.2,3.3l2.3-1.9c1,0.7,2.2,1.2,3.5,1.4l0.3,3h4.6
		l0.3-3C46.4,67,47.6,66.5,48.6,65.8z M42.6,60.8c-2.6,0-4.7-2.1-4.7-4.7c0-2.6,2.1-4.7,4.7-4.7s4.7,2.1,4.7,4.7
		C47.3,58.7,45.2,60.8,42.6,60.8z"/>
	<path class="st0" d="M30.6,26.4c-0.2-0.5-1-0.5-1.3,0L25,34.8l0,0.1c-1.1,2.9,0.4,6,3.2,7.1c0.6,0.2,1.2,0.3,1.7,0.3l0,0l0,0
		c0.6,0,1.2-0.1,1.8-0.3c2.8-1.1,4.3-4.3,3.2-7.1L30.6,26.4z M31.5,41.2c-0.5,0.2-1,0.3-1.5,0.3v0c-0.5,0-1-0.1-1.5-0.3
		c-2.4-0.9-3.7-3.6-2.8-6.1l4.3-8.3l4.2,8.2C35.1,37.6,33.9,40.3,31.5,41.2z"/>
	<path class="st0" d="M55.4,26.4c-0.2-0.5-1-0.5-1.3,0l-4.3,8.4l0,0.1c-1.1,2.9,0.4,6,3.2,7.1c0.6,0.2,1.2,0.3,1.7,0.3l0,0l0,0
		c0.6,0,1.2-0.1,1.8-0.3c2.8-1.1,4.3-4.3,3.2-7.1L55.4,26.4z M56.3,41.2c-0.5,0.2-1,0.3-1.5,0.3v0c-0.5,0-1-0.1-1.5-0.3
		c-2.4-0.9-3.7-3.6-2.8-6.1l4.3-8.3l4.2,8.2C59.9,37.6,58.7,40.3,56.3,41.2z"/>
	<path class="st0" d="M43.3,18.6c-0.2-0.5-1-0.5-1.3,0l-4.3,8.4l0,0.1c-1.1,2.9,0.4,6,3.2,7.1c0.6,0.2,1.2,0.3,1.8,0.3h0h0
		c0.6,0,1.2-0.1,1.8-0.3c2.8-1.1,4.3-4.3,3.2-7.1L43.3,18.6z M44.2,33.4c-0.5,0.2-1,0.3-1.5,0.3c-0.5,0-1-0.1-1.5-0.3
		c-2.4-0.9-3.7-3.6-2.8-6.1l4.3-8.3l4.2,8.2C47.8,29.8,46.6,32.5,44.2,33.4z"/>
</g>
</svg>
