<?xml version="1.0" encoding="utf-8"?>
<!-- Generator: Adobe Illustrator 24.1.0, SVG Export Plug-In . SVG Version: 6.00 Build 0)  -->
<svg version="1.1" id="Layer_1" xmlns="http://www.w3.org/2000/svg" xmlns:xlink="http://www.w3.org/1999/xlink" x="0px" y="0px"
	 viewBox="0 0 85 85" style="enable-background:new 0 0 85 85;" xml:space="preserve">
<style type="text/css">
	.st0{fill:#4BBAB5;}
</style>
<g>
	<path class="st0" d="M47.2,30.9c-2,0-3.7,1.7-3.7,3.9c0,2.1,1.6,3.9,3.7,3.9c2,0,3.7-1.7,3.7-3.9C50.8,32.6,49.2,30.9,47.2,30.9z"
		/>
	<path class="st0" d="M34.3,34.8c-2,0-3.7,1.7-3.7,3.9c0,2.1,1.6,3.9,3.7,3.9s3.7-1.7,3.7-3.9C38,36.5,36.3,34.8,34.3,34.8z"/>
	<path class="st0" d="M58.2,40.6c-2,0-3.7,1.7-3.7,3.9c0,2.1,1.6,3.9,3.7,3.9s3.7-1.7,3.7-3.9C61.9,42.3,60.2,40.6,58.2,40.6z"/>
	<path class="st0" d="M71.1,38.7c-2,0-3.7,1.7-3.7,3.9c0,2.1,1.6,3.9,3.7,3.9c2,0,3.7-1.7,3.7-3.9C74.8,40.4,73.1,38.7,71.1,38.7z"
		/>
	<path class="st0" d="M43.5,46.4c-2,0-3.7,1.7-3.7,3.9c0,2.1,1.6,3.9,3.7,3.9s3.7-1.7,3.7-3.9C47.2,48.2,45.5,46.4,43.5,46.4z"/>
	<path class="st0" d="M30.6,52.3c-2,0-3.7,1.7-3.7,3.9c0,2.1,1.6,3.9,3.7,3.9s3.7-1.7,3.7-3.9C34.3,54,32.6,52.3,30.6,52.3z"/>
	<path class="st0" d="M14.1,54.2c2,0,3.7-1.7,3.7-3.9c0-2.1-1.6-3.9-3.7-3.9c-2,0-3.7,1.7-3.7,3.9v0C10.4,52.5,12,54.2,14.1,54.2z"
		/>
</g>
</svg>
