<?xml version="1.0" encoding="utf-8"?>
<!-- Generator: Adobe Illustrator 24.1.0, SVG Export Plug-In . SVG Version: 6.00 Build 0)  -->
<svg version="1.1" id="Layer_1" xmlns="http://www.w3.org/2000/svg" xmlns:xlink="http://www.w3.org/1999/xlink" x="0px" y="0px"
	 viewBox="0 0 85 85" style="enable-background:new 0 0 85 85;" xml:space="preserve">
<style type="text/css">
	.st0{clip-path:url(#SVGID_2_);fill:#4BBAB5;}
</style>
<g>
	<defs>
		<rect id="SVGID_1_" x="10.8" y="9.9" width="62.4" height="65.4"/>
	</defs>
	<clipPath id="SVGID_2_">
		<use xlink:href="#SVGID_1_"  style="overflow:visible;"/>
	</clipPath>
	<path class="st0" d="M33.3,19.1h5.1c0,0,4.1,0.1,7.9,0.1c2.1,0,3.7,0,4.8-0.1c0.1,0,0.2,0,0.3,0c2.6,0,4.6,2,5.5,3
		c0.2,0.2,0.3,0.3,0.5,0.4c0.3,0.3,2.9,3,5.2,5.4c4,4.2,6.6,7,7.1,7.4c0.6,0.5,0.6,1.4,0.6,1.4v0l0,0l1,13.6
		c0.2,1.4,0.5,5.3-1.4,5.7c-0.1,0-0.3,0-0.4,0c-1.6,0-2.6-2.8-2.8-3.8l0-0.1c-0.2-0.9-0.3-2.8-0.3-6.8c0-4.1-3-6.2-3.9-6.9
		c-0.1-0.1-0.2-0.1-0.2-0.2c-0.1-0.1-0.2-0.2-0.4-0.3c-1.2-0.8-4.7-2.9-6.3-3.9c-0.4-0.3-0.7-0.5-0.8-0.5c-0.1,0-1.4-0.7-4.4-1.2
		c-0.5-0.1-1-0.1-1.6-0.1c-3.4,0-6,1.9-6.5,4.8c-0.6,3.2,2.7,7.3,4.1,9c0.2,0.2,0.4,0.5,0.4,0.6c0.1,0.2,0.3,0.4,0.7,0.9
		c1.1,1.3,4.6,5.4,4.1,7.3c-0.3,1-0.7,1-0.8,1h0c-0.5,0-1.1-0.4-1.2-0.6c-0.3-0.3-3.4-3.7-4.6-5c-2.6-3.7-9.4-7.6-9.7-7.8l-0.1,0
		c-0.2-0.1-3.8-1.8-5.8-2.6c-1.2-0.5-2.9-1.5-4.3-2.4c0.9-6.2,3.1-11,5-14C31.2,21.5,32.5,20,33.3,19.1 M64.2,47.3h-0.6h-0.8h-1.1
		h-2.8h-0.6h-2h-2.2l-1.4,5.2c-0.8-1.9-2.4-4-4.1-5.9c-0.2-0.3-0.5-0.6-0.6-0.7c-0.1-0.1-0.2-0.3-0.6-0.7c-1.1-1.4-4.1-5.1-3.7-7.5
		c0.4-2.4,2.7-3.3,4.8-3.3c0.4,0,0.9,0,1.3,0.1c2.8,0.5,3.9,1,3.9,1c0.6,0.3,7,4.4,7.1,4.4c0,0,0.1,0.1,0.1,0.1
		c0.9,0.5,2,1.3,2.8,2.8c0.2,0.4,0.3,0.8,0.5,1.2c0,0,0,0,0,0c0.1,0.5,0.2,1,0.2,1.6c0,1.3,0,2.3,0,3.2L64.2,47.3z M31.5,17.6
		c-0.9,1-2.1,2.5-3.4,4.6c-1.5,2.4-3.2,5.8-4.4,10.2c-0.4,1.5-0.7,3-1,4.7L12,33.3c-0.1,0.5-0.2,1.1-0.2,1.6l10.8,3.9c0,0,0,0,0,0h0
		l0,0v0l1.1,0.1v0c0.1,0.1,0.2,0.1,0.4,0.2c1.5,0.9,3.2,2,4.5,2.5c1.9,0.8,5.3,2.4,5.6,2.6c0.5,0.3,6.9,4.1,9.2,7.3l0.1,0.1
		c0.2,0.2,4.3,4.7,4.7,5.1c0.3,0.3,1.3,1.1,2.5,1.1c0.4,0,0.9-0.1,1.4-0.5v5.9h6.5v9.2l0.2,2.6l0,0.4c0.3,0,0.6,0,0.9-0.1l0-0.4h0
		l0.2-2.5v-9.2h6.5v-7.1c0.7,1,1.7,1.9,3.1,1.9c0.3,0,0.5,0,0.8-0.1c2.3-0.5,3-3.1,3-5.5v-0.1c0-0.8-0.1-1.5-0.2-2.2l-1-13.4
		c0-0.3-0.1-1.8-1.2-2.8c-0.5-0.4-4.1-4.2-7-7.3c-3.1-3.2-5-5.2-5.3-5.5c-0.1-0.1-0.2-0.2-0.3-0.3c-1.1-1.1-3.6-3.7-7.2-3.5
		c-1.1,0.1-2.6,0.1-4.7,0.1c-3.8,0-7.9-0.1-7.9-0.1h-4.4c-0.1,0.1-0.2,0.2-0.3,0.3c0.1-0.1,0.2-0.2,0.3-0.3h-0.5l0,0l-0.8-0.9l0,0
		l-9.8-6c-0.4,0.4-0.7,0.8-1,1.2L31.5,17.6z"/>
	<path class="st0" d="M14.9,22.9c1.7-4.1,4-7.9,6.8-11.2l-0.9-0.5c-2.8,3.4-5.1,7.2-6.9,11.4c-1.4,3.4-2.4,6.9-3,10.4l0.9,0.3
		C12.5,29.7,13.5,26.3,14.9,22.9"/>
	<path class="st0" d="M12,33.3L11,33c-0.1,0.5-0.2,1.1-0.2,1.6l1,0.3C11.8,34.4,11.9,33.8,12,33.3"/>
	<path class="st0" d="M22.8,10.5l-0.9-0.5c-0.4,0.4-0.7,0.8-1,1.2l0.9,0.5C22.1,11.3,22.4,10.9,22.8,10.5"/>
</g>
</svg>
