<?xml version="1.0" encoding="utf-8"?>
<!-- Generator: Adobe Illustrator 24.1.0, SVG Export Plug-In . SVG Version: 6.00 Build 0)  -->
<svg version="1.1" id="Layer_1" xmlns="http://www.w3.org/2000/svg" xmlns:xlink="http://www.w3.org/1999/xlink" x="0px" y="0px"
	 viewBox="0 0 85 85" style="enable-background:new 0 0 85 85;" xml:space="preserve">
<style type="text/css">
	.st0{fill:#4BBAB5;}
</style>
<g>
	<path class="st0" d="M67.8,37.1H55.7l-6.1-11H35.7l-6.1,11H17.2l-6.9,12.4l6.9,12.4h13.9l6.1-11h10.6l6.1,11h13.9l6.9-12.4
		L67.8,37.1z M29.5,59.1H18.8l-5.4-9.6l5.4-9.6h10.7l5.4,9.6L29.5,59.1z M47.8,48.1H37.2l-5.4-9.6l5.4-9.6h10.7l5.3,9.5L47.8,48.1z
		 M66.3,59.1H55.6l-5.3-9.5l5.4-9.7h10.6l5.4,9.6L66.3,59.1z"/>
	<polygon class="st0" points="18.8,42.4 15.2,49.2 16.3,49.8 19.9,43 	"/>
	<rect x="19.3" y="56.8" class="st0" width="7.6" height="1.3"/>
	<polygon class="st0" points="52,49.2 53.1,49.8 57.4,41.7 56.3,41.1 	"/>
	<polygon class="st0" points="65.4,41.1 64.3,41.7 68.6,49.8 69.7,49.2 	"/>
</g>
</svg>
