<?xml version="1.0" encoding="utf-8"?>
<!-- Generator: Adobe Illustrator 24.1.0, SVG Export Plug-In . SVG Version: 6.00 Build 0)  -->
<svg version="1.1" id="Layer_1" xmlns="http://www.w3.org/2000/svg" xmlns:xlink="http://www.w3.org/1999/xlink" x="0px" y="0px"
	 viewBox="0 0 85 85" style="enable-background:new 0 0 85 85;" xml:space="preserve">
<style type="text/css">
	.st0{fill:#4BBAB5;}
</style>
<g>
	<path class="st0" d="M69.8,50.6l-2.5-8.1c-0.4-1.3-1.7-2.6-3-3l-19.6-6.4c-1.2-0.4-3-0.4-4.2,0l-19.6,6.4c-1.3,0.4-2.6,1.7-3,3
		l-2.5,8.1c-0.3,0.9-0.1,1.7,0.4,2.3c0.4,0.4,1,0.6,1.6,0.6c0.2,0,0.4,0,0.7-0.1L37.5,49c1.4-0.3,2.8-1.6,3.2-2.9l1.7-5.5
		c0.1-0.3,0.1-0.6-0.1-0.9c-0.2-0.3-0.4-0.5-0.8-0.6c-0.7-0.2-1.4,0.2-1.6,0.8l-1.7,5.5c-0.2,0.5-0.8,1.1-1.3,1.2l-19.1,4.3l2.4-7.7
		c0.2-0.5,0.9-1.2,1.4-1.4l19.6-6.4c0.7-0.2,1.9-0.2,2.6,0l19.6,6.4c0.5,0.2,1.2,0.9,1.4,1.4l2.4,7.7l-19.1-4.3
		c-0.5-0.1-1.2-0.7-1.3-1.2l-1.7-5.5c-0.2-0.6-0.9-1-1.6-0.8c-0.3,0.1-0.6,0.3-0.7,0.6c-0.2,0.3-0.2,0.6-0.1,0.9l1.7,5.5
		c0.4,1.3,1.8,2.6,3.2,2.9l19.5,4.4c0.9,0.2,1.7,0,2.3-0.6C69.9,52.3,70.1,51.4,69.8,50.6z"/>
	<path class="st0" d="M65.5,54.1c-0.7,0-1.3,0.6-1.3,1.2v10.5c0,0.4-0.4,1-0.8,1.1l-19.6,5.9c-0.7,0.2-2,0.2-2.7,0l-19.6-5.9
		c-0.4-0.1-0.8-0.7-0.8-1.1V55.3c0-0.7-0.6-1.2-1.3-1.2c-0.7,0-1.3,0.6-1.3,1.2v10.5c0,1.5,1.1,3,2.6,3.4l19.6,5.9
		c0.6,0.2,1.3,0.3,2.1,0.3c0.8,0,1.5-0.1,2.1-0.3l19.6-5.9c1.5-0.4,2.6-1.9,2.6-3.4V55.3C66.8,54.6,66.2,54.1,65.5,54.1z"/>
	<path class="st0" d="M40.8,29.9L40.8,29.9c0.4,0.4,0.9,0.7,1.4,0.7c0.5,0,1.1-0.3,1.4-0.7l5-6.4c0.4-0.5,0.5-1.2,0.2-1.7
		c-0.3-0.5-0.8-0.8-1.5-0.8h-1.9v-10c0-0.7-0.6-1.2-1.3-1.2c-0.7,0-1.3,0.6-1.3,1.2v11.3c0,0.7,0.6,1.2,1.3,1.2h1.3l-3.3,4.3
		l-3.4-4.3h1.5c0.7,0,1.3-0.6,1.3-1.2v-7.9c0-0.7-0.6-1.2-1.3-1.2c-0.7,0-1.3,0.6-1.3,1.2v6.6h-2.1c-0.7,0-1.2,0.3-1.5,0.8
		c-0.3,0.5-0.2,1.2,0.2,1.7L40.8,29.9z"/>
</g>
</svg>
