<?xml version="1.0" encoding="utf-8"?>
<!-- Generator: Adobe Illustrator 24.1.0, SVG Export Plug-In . SVG Version: 6.00 Build 0)  -->
<svg version="1.1" id="Layer_1" xmlns="http://www.w3.org/2000/svg" xmlns:xlink="http://www.w3.org/1999/xlink" x="0px" y="0px"
	 viewBox="0 0 85 85" style="enable-background:new 0 0 85 85;" xml:space="preserve">
<style type="text/css">
	.st0{fill:#4BBAB5;}
</style>
<g>
	<path class="st0" d="M42.5,60c9,0,16.2-1.9,16.2-4.3c0-0.8-0.8-1.5-2.2-2.2c0.7,0.4,1,0.9,1,1.4c0,2.2-6.7,4-15,4
		c-8.3,0-15-1.8-15-4c0-0.5,0.4-1,1-1.4c-1.4,0.6-2.2,1.4-2.2,2.2C26.3,58.1,33.6,60,42.5,60z"/>
	<path class="st0" d="M63.6,54.5c1,0.7,1.5,1.4,1.5,2.2c0,3.3-10.1,6-22.6,6c-12.5,0-22.6-2.7-22.6-6c0-0.8,0.5-1.5,1.5-2.2
		c-2.1,1-3.4,2.1-3.4,3.3c0,3.6,10.9,6.5,24.4,6.5h0.2c13.5,0,24.4-2.9,24.4-6.5C67,56.6,65.8,55.5,63.6,54.5z"/>
	<path class="st0" d="M42.5,58.6c6.9,0,12.5-1.5,12.5-3.3c0-0.6-0.6-1.2-1.7-1.7c0.5,0.3,0.8,0.7,0.8,1.1c0,1.7-5.2,3-11.5,3
		c-6.4,0-11.5-1.4-11.5-3c0-0.4,0.3-0.8,0.8-1.1c-1.1,0.5-1.7,1.1-1.7,1.7C30.1,57.1,35.6,58.6,42.5,58.6z"/>
	<path class="st0" d="M60.2,53.8c0.8,0.6,1.3,1.2,1.3,1.8c0,2.8-8.5,5-19,5s-19-2.2-19-5c0-0.6,0.5-1.3,1.3-1.8
		C23,54.6,22,55.5,22,56.5c0,3,9.2,5.4,20.5,5.4c11.3,0,20.5-2.4,20.5-5.4C63.1,55.5,62,54.6,60.2,53.8z"/>
	<path class="st0" d="M31.6,39.5L31.6,39.5c-0.3,0.7-0.5,1.4-0.7,2.2c-0.2,0.8-0.2,1.5-0.2,2.3c0,6.6,5.3,11.9,11.9,11.9
		c6.6,0,11.9-5.3,11.9-11.9c0-1.6-0.3-3.1-0.9-4.5h0l0,0c-0.4-1-1-1.9-1.6-2.8l-9.3-16h0l-9.3,16C32.5,37.6,32,38.5,31.6,39.5z
		 M51.7,40.6c0-0.6,0-1.3-0.1-1.9c0,0.1,0.1,0.2,0.1,0.3l0,0c0.5,1.3,0.8,2.7,0.8,4.1c0,6-4.9,10.8-10.8,10.8c-0.6,0-1.1,0-1.6-0.1
		C46.6,53,51.7,47.4,51.7,40.6z"/>
</g>
</svg>
