<?xml version="1.0" encoding="utf-8"?>
<!-- Generator: Adobe Illustrator 24.1.0, SVG Export Plug-In . SVG Version: 6.00 Build 0)  -->
<svg version="1.1" id="Layer_1" xmlns="http://www.w3.org/2000/svg" xmlns:xlink="http://www.w3.org/1999/xlink" x="0px" y="0px"
	 viewBox="0 0 85 85" style="enable-background:new 0 0 85 85;" xml:space="preserve">
<style type="text/css">
	.st0{fill:#4BBAB5;}
</style>
<g>
	<path class="st0" d="M32.6,22c4.2,7.4,1.3,12.4-2.3,19.5c-3.8,7.5-4.4,15.7,2.3,21.6c-3.9-8.6-1.7-14.4,2.3-22.4
		C38.1,34.1,39.3,26.8,32.6,22z"/>
	<path class="st0" d="M52.7,26c4.2,7.4,1.3,12.4-2.3,19.5c-3.8,7.5-4.4,15.7,2.3,21.6C48.8,58.5,51,52.7,55,44.7
		C58.2,38.1,59.4,30.8,52.7,26z"/>
	<path class="st0" d="M46.3,40.1c4.4-8.9,6-18.7-3-25.1c5.6,9.9,1.7,16.7-3.1,26.1c-5.1,10-5.9,21,3.1,29h0
		C38.1,58.5,41,50.8,46.3,40.1z"/>
</g>
</svg>
