<?xml version="1.0" encoding="utf-8"?>
<!-- Generator: Adobe Illustrator 24.1.0, SVG Export Plug-In . SVG Version: 6.00 Build 0)  -->
<svg version="1.1" id="Layer_1" xmlns="http://www.w3.org/2000/svg" xmlns:xlink="http://www.w3.org/1999/xlink" x="0px" y="0px"
	 viewBox="0 0 85 85" style="enable-background:new 0 0 85 85;" xml:space="preserve">
<style type="text/css">
	.st0{fill:#4BBAB5;}
</style>
<g>
	<path class="st0" d="M19.5,31.2c0.2-0.5,0.2-1,0.2-1.5v0c0-0.5-0.1-1-0.2-1.5s-0.4-0.9-0.7-1.2c-0.3-0.4-0.6-0.6-1.1-0.8
		c-0.4-0.2-0.9-0.3-1.4-0.3c-0.5,0-1,0.1-1.4,0.3c-0.4,0.2-0.8,0.5-1.1,0.8c-0.3,0.4-0.5,0.8-0.7,1.2c-0.2,0.5-0.2,1-0.2,1.5v0
		c0,0.5,0.1,1.1,0.2,1.5c0.2,0.5,0.4,0.9,0.7,1.2c0.3,0.4,0.6,0.6,1.1,0.8c0.4,0.2,0.9,0.3,1.4,0.3c0.5,0,1-0.1,1.4-0.3
		c0.4-0.2,0.8-0.5,1.1-0.8C19.2,32.1,19.4,31.7,19.5,31.2z M18.4,29.7c0,0.4,0,0.7-0.1,1.1c-0.1,0.3-0.2,0.6-0.4,0.9
		c-0.2,0.2-0.4,0.4-0.6,0.6c-0.2,0.1-0.5,0.2-0.8,0.2c-0.3,0-0.6-0.1-0.8-0.2c-0.2-0.1-0.5-0.3-0.6-0.6c-0.2-0.2-0.3-0.5-0.4-0.9
		c-0.1-0.3-0.1-0.7-0.1-1.1v0c0-0.4,0-0.7,0.1-1.1c0.1-0.3,0.2-0.6,0.4-0.9c0.2-0.2,0.4-0.4,0.6-0.6c0.2-0.1,0.5-0.2,0.8-0.2
		c0.3,0,0.6,0.1,0.8,0.2c0.2,0.1,0.5,0.3,0.6,0.6c0.2,0.2,0.3,0.5,0.4,0.9C18.3,29,18.4,29.3,18.4,29.7L18.4,29.7z"/>
	<polygon class="st0" points="22.2,27.2 22.2,33.5 23.5,33.5 23.5,25.9 22.6,25.9 20.5,26.5 20.8,27.6 	"/>
	<path class="st0" d="M16.5,39.6c-0.3-0.4-0.6-0.6-1.1-0.8c-0.4-0.2-0.9-0.3-1.4-0.3s-1,0.1-1.4,0.3c-0.4,0.2-0.8,0.5-1.1,0.8
		c-0.3,0.4-0.5,0.8-0.7,1.2c-0.2,0.5-0.2,1-0.2,1.5v0c0,0.5,0.1,1.1,0.2,1.5s0.4,0.9,0.7,1.2c0.3,0.4,0.6,0.6,1.1,0.8
		c0.4,0.2,0.9,0.3,1.4,0.3c0.5,0,1-0.1,1.4-0.3c0.4-0.2,0.8-0.5,1.1-0.8c0.3-0.4,0.5-0.8,0.7-1.2c0.2-0.5,0.2-1,0.2-1.5v0
		c0-0.5-0.1-1-0.2-1.5C17,40.4,16.8,40,16.5,39.6z M16,42.5c0,0.4,0,0.7-0.1,1.1c-0.1,0.3-0.2,0.6-0.4,0.9c-0.2,0.2-0.4,0.4-0.6,0.6
		c-0.2,0.1-0.5,0.2-0.8,0.2s-0.6-0.1-0.8-0.2c-0.2-0.1-0.5-0.3-0.6-0.6c-0.2-0.2-0.3-0.5-0.4-0.9c-0.1-0.3-0.1-0.7-0.1-1.1v0
		c0-0.4,0-0.7,0.1-1.1c0.1-0.3,0.2-0.6,0.4-0.9c0.2-0.2,0.4-0.4,0.6-0.6c0.2-0.1,0.5-0.2,0.8-0.2c0.3,0,0.6,0.1,0.8,0.2
		c0.2,0.1,0.5,0.3,0.6,0.6c0.2,0.2,0.3,0.5,0.4,0.9C16,41.7,16,42.1,16,42.5L16,42.5z"/>
	<path class="st0" d="M21.9,43.8c0.3-0.3,0.6-0.5,0.9-0.8c0.3-0.2,0.5-0.5,0.6-0.7c0.2-0.2,0.3-0.5,0.4-0.7c0.1-0.2,0.1-0.5,0.1-0.8
		v0c0-0.3-0.1-0.6-0.2-0.9c-0.1-0.3-0.3-0.5-0.5-0.7s-0.5-0.4-0.8-0.5c-0.3-0.1-0.7-0.2-1-0.2c-0.3,0-0.7,0-0.9,0.1
		c-0.3,0.1-0.5,0.2-0.7,0.3c-0.2,0.1-0.4,0.3-0.6,0.5c-0.2,0.2-0.4,0.4-0.6,0.7l1,0.7c0.3-0.4,0.6-0.7,0.9-0.9
		c0.3-0.2,0.6-0.3,0.9-0.3c0.4,0,0.7,0.1,0.9,0.3c0.2,0.2,0.4,0.5,0.4,0.9c0,0.2,0,0.3-0.1,0.5c0,0.2-0.1,0.3-0.2,0.5
		c-0.1,0.2-0.3,0.3-0.4,0.5c-0.2,0.2-0.4,0.4-0.7,0.6l-2.7,2.2v1H24v-1.2h-3.7L21.9,43.8z"/>
	<path class="st0" d="M11.6,57.9c0.3,0.4,0.6,0.6,1.1,0.8c0.4,0.2,0.9,0.3,1.4,0.3c0.5,0,1-0.1,1.4-0.3c0.4-0.2,0.8-0.5,1.1-0.8
		c0.3-0.4,0.5-0.8,0.7-1.2c0.2-0.5,0.2-1,0.2-1.5v0c0-0.5-0.1-1-0.2-1.5c-0.2-0.5-0.4-0.9-0.7-1.2c-0.3-0.4-0.6-0.6-1.1-0.8
		c-0.4-0.2-0.9-0.3-1.4-0.3c-0.5,0-1,0.1-1.4,0.3c-0.4,0.2-0.8,0.5-1.1,0.8c-0.3,0.4-0.5,0.8-0.7,1.2c-0.2,0.5-0.2,1-0.2,1.5v0
		c0,0.5,0.1,1.1,0.2,1.5S11.3,57.6,11.6,57.9z M12.1,55.1c0-0.4,0-0.7,0.1-1.1c0.1-0.3,0.2-0.6,0.4-0.9c0.2-0.2,0.4-0.4,0.6-0.6
		c0.2-0.1,0.5-0.2,0.8-0.2c0.3,0,0.6,0.1,0.8,0.2c0.2,0.1,0.5,0.3,0.6,0.6c0.2,0.2,0.3,0.5,0.4,0.9c0.1,0.3,0.1,0.7,0.1,1.1v0
		c0,0.4,0,0.7-0.1,1.1c-0.1,0.3-0.2,0.6-0.4,0.9c-0.2,0.2-0.4,0.4-0.6,0.6c-0.2,0.1-0.5,0.2-0.8,0.2s-0.6-0.1-0.8-0.2
		c-0.2-0.1-0.5-0.3-0.6-0.6c-0.2-0.2-0.3-0.5-0.4-0.9C12.1,55.9,12.1,55.5,12.1,55.1L12.1,55.1z"/>
	<path class="st0" d="M23.2,55.1c-0.2-0.2-0.5-0.3-0.7-0.4c-0.3-0.1-0.6-0.2-0.9-0.2l2.2-2.2v-1h-5.1v1.2H22l-2.1,2.2l0.2,0.8h0.6
		c0.5,0,1,0.1,1.3,0.3c0.3,0.2,0.5,0.5,0.5,0.9v0c0,0.3-0.1,0.6-0.4,0.8c-0.3,0.2-0.6,0.3-1,0.3c-0.4,0-0.8-0.1-1.1-0.3
		c-0.3-0.2-0.6-0.4-0.9-0.7l-1,0.9c0.3,0.4,0.7,0.7,1.2,1c0.5,0.3,1.1,0.4,1.7,0.4c0.4,0,0.8-0.1,1.1-0.2c0.3-0.1,0.6-0.3,0.9-0.5
		c0.2-0.2,0.4-0.5,0.6-0.8c0.1-0.3,0.2-0.6,0.2-1v0c0-0.4-0.1-0.7-0.2-0.9C23.6,55.5,23.4,55.3,23.2,55.1z"/>
	<path class="st0" d="M44.5,50.8h-4.9c-1,0-1.9,0.9-1.9,1.9c0,1.1,0.8,1.9,1.9,1.9h4.9c1,0,1.9-0.9,1.9-1.9
		C46.3,51.6,45.5,50.8,44.5,50.8z"/>
	<path class="st0" d="M39.5,33.7h16.7c1,0,1.9-0.9,1.9-1.9c0-1.1-0.8-1.9-1.9-1.9H39.5c-1,0-1.9,0.9-1.9,1.9
		C37.7,32.9,38.5,33.7,39.5,33.7z"/>
	<path class="st0" d="M70,48.9L59.8,60.6l-5.1-5.1c-0.7-0.7-1.9-0.7-2.6,0.1c-0.7,0.8-0.7,2,0.1,2.7l6.5,6.5
		c0.3,0.4,0.8,0.5,1.3,0.5H60c0.5,0,1-0.3,1.3-0.6l11.4-13.2c0.7-0.8,0.6-2.1-0.1-2.8C71.8,48,70.6,48.1,70,48.9z"/>
	<path class="st0" d="M28.4,20.5v44.1c0,1.1,0.8,1.9,1.9,1.9h16.1c1,0,1.9-0.9,1.9-1.9c0-1.1-0.8-1.9-1.9-1.9H32.1V22.5H63V44
		c0,1.1,0.8,1.9,1.9,1.9c1,0,1.9-0.9,1.9-1.9V20.5c0-1.1-0.8-1.9-1.8-1.9H30.2C29.2,18.6,28.4,19.5,28.4,20.5z"/>
	<path class="st0" d="M58.1,42.4c0-1.1-0.8-1.9-1.9-1.9H39.5c-1,0-1.9,0.9-1.9,1.9c0,1.1,0.8,1.9,1.9,1.9h16.7
		C57.3,44.3,58.1,43.5,58.1,42.4z"/>
</g>
</svg>
