<?xml version="1.0" encoding="utf-8"?>
<!-- Generator: Adobe Illustrator 24.1.0, SVG Export Plug-In . SVG Version: 6.00 Build 0)  -->
<svg version="1.1" id="Layer_1" xmlns="http://www.w3.org/2000/svg" xmlns:xlink="http://www.w3.org/1999/xlink" x="0px" y="0px"
	 viewBox="0 0 85 85" style="enable-background:new 0 0 85 85;" xml:space="preserve">
<style type="text/css">
	.st0{fill:#4BBAB5;}
</style>
<g>
	<path class="st0" d="M60.9,24.3c-1.8-1.6-4-2.3-6.6-2.3c-6.9,0.1-14.1,5.9-14.4,6.1c-0.3,0.2-0.4,0.7-0.1,1c0.2,0.3,0.7,0.4,1,0.2
		l0.2-0.1c2-1.3,4.5-2.3,6.9-1.9c1,0.1,2,0.6,2.5,1.5c0.5,0.8,0.5,1.9,0.5,2.9c-0.4,5.6-3.2,10.7-7,14.6c-2.4,2.4-5.7,5.2-9.2,5.5
		c-1.6,0.1-2.8-0.2-3.6-1.1c-1.2-1.3-1.1-3.3-1.1-3.3c0-0.3-0.2-0.6-0.4-0.7c-0.3-0.1-0.6-0.1-0.8,0.2c-1.3,1.4-1.5,4.1-1.5,6
		c-4-7,2.4-18.2,2.5-18.4c0.2-0.3,0.1-0.7-0.1-0.9c-0.2-0.2-0.6-0.3-0.9-0.1c-4.7,2.6-7.8,11.9-7.9,12.3c-1.5,4.6-0.8,9.6,1.6,13
		c2.1,2.9,5.3,4.4,9.1,4.4c3.5-0.1,7.5-1.4,11.7-4.1c13.2-8.3,16-20.5,16.6-25.5c3.4,6.8-2,16.7-2,16.8c-0.2,0.3-0.1,0.7,0.2,0.9
		c0.3,0.2,0.7,0.2,0.9,0c3.7-3.3,6.4-10.1,6.4-16.1C65.2,30.5,63.7,26.7,60.9,24.3z"/>
	<path class="st0" d="M37.8,32.2c1-0.8,1.5-1.8,1.2-2.1c-0.3-0.4-1.3,0-2.3,0.8c-1,0.8-1.5,1.8-1.2,2.1C35.8,33.4,36.8,33,37.8,32.2
		z"/>
	<path class="st0" d="M34.4,35.3c0.5-0.4,0.7-1,0.4-1.3c-0.2-0.3-0.8-0.2-1.3,0.2c-0.5,0.4-0.7,1-0.4,1.3
		C33.3,35.8,33.9,35.7,34.4,35.3z"/>
</g>
</svg>
