<?xml version="1.0" encoding="utf-8"?>
<!-- Generator: Adobe Illustrator 24.1.0, SVG Export Plug-In . SVG Version: 6.00 Build 0)  -->
<svg version="1.1" id="Layer_1" xmlns="http://www.w3.org/2000/svg" xmlns:xlink="http://www.w3.org/1999/xlink" x="0px" y="0px"
	 viewBox="0 0 85 85" style="enable-background:new 0 0 85 85;" xml:space="preserve">
<style type="text/css">
	.st0{fill:#4BBAB5;}
</style>
<g>
	<circle class="st0" cx="43.8" cy="44" r="5"/>
	<polygon class="st0" points="41.6,31.2 42.7,34.2 43.8,37.2 44.8,34.2 45.9,31.2 44.2,31.2 44.2,16.1 45.9,16.1 44.8,13.1 
		43.8,10.2 42.7,13.1 41.6,16.1 43.4,16.1 43.4,31.2 	"/>
	<polygon class="st0" points="45.9,56.8 44.8,53.8 43.8,50.9 42.7,53.8 41.6,56.8 43.4,56.8 43.4,72 41.6,72 42.7,74.9 43.8,77.9 
		44.8,74.9 45.9,72 44.2,72 44.2,56.8 	"/>
	<polygon class="st0" points="22.5,25.8 23.7,24.6 34.5,35.3 33.2,36.5 36.1,37.8 38.9,39.2 37.6,36.3 36.3,33.5 35,34.7 24.3,24 
		25.5,22.8 22.7,21.4 19.8,20.1 21.2,22.9 	"/>
	<polygon class="st0" points="65,62.3 63.8,63.5 53.1,52.8 54.3,51.5 51.5,50.2 48.6,48.9 50,51.7 51.3,54.6 52.5,53.3 63.2,64.1 
		62,65.3 64.9,66.6 67.7,68 66.4,65.1 	"/>
	<polygon class="st0" points="31,46.2 34,45.1 36.9,44 34,43 31,41.9 31,43.6 15.8,43.6 15.8,41.9 12.9,43 9.9,44 12.9,45.1 
		15.8,46.2 15.8,44.4 31,44.4 	"/>
	<polygon class="st0" points="71.7,41.9 71.7,43.6 56.5,43.6 56.5,41.9 53.6,43 50.6,44 53.6,45.1 56.5,46.2 56.5,44.4 71.7,44.4 
		71.7,46.2 74.7,45.1 77.6,44 74.7,43 	"/>
	<polygon class="st0" points="33.2,51.5 34.5,52.8 23.7,63.5 22.5,62.3 21.2,65.1 19.8,68 22.7,66.6 25.5,65.3 24.3,64.1 35,53.3 
		36.3,54.6 37.6,51.7 38.9,48.9 36.1,50.2 	"/>
	<polygon class="st0" points="54.3,36.5 53.1,35.3 63.8,24.6 65,25.8 66.4,22.9 67.7,20.1 64.9,21.4 62,22.8 63.2,24 52.5,34.7 
		51.3,33.5 50,36.3 48.6,39.2 51.5,37.8 	"/>
</g>
</svg>
